<svg width="175" height="177" viewBox="0 0 175 177" fill="none" xmlns="http://www.w3.org/2000/svg">
<path d="M20.9772 26.926H33.4612V39.2408H20.9772V26.926Z" fill="#0A4763"/>
<path d="M45.9453 26.926H58.4294V39.2408H45.9453V26.926Z" fill="#0A4763"/>
<path d="M70.9136 26.926H83.3976V39.2408H70.9136V26.926Z" fill="#0A4763"/>
<path d="M20.9772 57.7128H33.4612V70.0276H20.9772V57.7128Z" fill="#0A4763"/>
<path d="M45.9453 57.7129H58.4294V70.0277H45.9453V57.7129Z" fill="#0A4763"/>
<path d="M70.9136 57.7129H83.3976V70.0277H70.9136V57.7129Z" fill="#0A4763"/>
<path d="M20.9772 88.5002H33.4612V100.815H20.9772V88.5002Z" fill="#0A4763"/>
<path d="M45.9453 88.5002H58.4294V100.815H45.9453V88.5002Z" fill="#0A4763"/>
<path d="M70.9136 88.5002H83.3976V100.815H70.9136V88.5002Z" fill="#0A4763"/>
<path d="M20.9772 119.287H33.4612V131.602H20.9772V119.287Z" fill="#0A4763"/>
<path d="M45.9453 119.287H58.4294V131.602H45.9453V119.287Z" fill="#0A4763"/>
<path d="M70.9136 119.287H83.3976V131.602H70.9136V119.287Z" fill="#0A4763"/>
<path d="M114.608 57.7129H127.092V70.0277H114.608V57.7129Z" fill="#0A4763"/>
<path d="M139.576 57.7129H152.06V70.0277H139.576V57.7129Z" fill="#0A4763"/>
<path d="M114.608 88.5002H127.092V100.815H114.608V88.5002Z" fill="#0A4763"/>
<path d="M139.576 88.5002H152.06V100.815H139.576V88.5002Z" fill="#0A4763"/>
<path d="M114.608 119.287H127.092V131.602H114.608V119.287Z" fill="#0A4763"/>
<path d="M139.576 119.287H152.06V131.602H139.576V119.287Z" fill="#0A4763"/>
<path d="M3.14282 15C3.14282 8.37258 8.51541 3 15.1428 3H89.5887C96.2161 3 101.589 8.37258 101.589 15V174H3.14282V15Z" stroke="#0A4763" stroke-width="6"/>
<path d="M115.5 33.0833H159.143C165.77 33.0833 171.143 38.4558 171.143 45.0833V174H115.5" stroke="#0A4763" stroke-width="6"/>
</svg>
