<svg width="24" height="25" viewBox="0 0 24 25" fill="none" xmlns="http://www.w3.org/2000/svg">
<path d="M5 13.5V9.5C5 7.61438 5 6.67157 5.58579 6.08579C6.17157 5.5 7.11438 5.5 9 5.5H9.34315C10.1606 5.5 10.5694 5.5 10.9369 5.65224C11.3045 5.80448 11.5935 6.09351 12.1716 6.67157L12.8284 7.32843C13.4065 7.90649 13.6955 8.19552 14.0631 8.34776C14.4306 8.5 14.8394 8.5 15.6569 8.5H17C18.8856 8.5 19.8284 8.5 20.4142 9.08579C21 9.67157 21 10.6144 21 12.5V15.5C21 17.3856 21 18.3284 20.4142 18.9142C19.8284 19.5 18.8856 19.5 17 19.5H11" stroke="#2A3748"/>
<path d="M4 17L6.5 19.5L11.5 14.5" stroke="#2A3748"/>
</svg>
