<svg width="24" height="25" viewBox="0 0 24 25" fill="none" xmlns="http://www.w3.org/2000/svg">
<path d="M6 5.5V7.9C6 8.46005 6 8.74008 6.10899 8.95399C6.20487 9.14215 6.35785 9.29513 6.54601 9.39101C6.75992 9.5 7.03995 9.5 7.6 9.5H9.5" stroke="#425061"/>
<path d="M6 5.5V15.9C6 16.4601 6 16.7401 6.10899 16.954C6.20487 17.1422 6.35785 17.2951 6.54601 17.391C6.75992 17.5 7.03995 17.5 7.6 17.5H9.5" stroke="#425061"/>
<path d="M12 8.1C12 7.53995 12 7.25992 12.109 7.04601C12.2049 6.85785 12.3578 6.70487 12.546 6.60899C12.7599 6.5 13.0399 6.5 13.6 6.5H13.8371C14.0817 6.5 14.2041 6.5 14.3192 6.52764C14.4212 6.55215 14.5188 6.59258 14.6083 6.64743C14.7092 6.70931 14.7957 6.79582 14.9687 6.96886L15.0312 7.03144C15.2042 7.20451 15.2907 7.29105 15.3917 7.35293C15.4812 7.40779 15.5788 7.44821 15.6809 7.47272C15.796 7.50035 15.9184 7.50033 16.1631 7.50029L16.3997 7.50026C16.9599 7.50017 17.2399 7.50012 17.4539 7.6091C17.6421 7.70497 17.7951 7.85795 17.891 8.04613C18 8.26006 18 8.54012 18 9.10026V9.9C18 10.4601 18 10.7401 17.891 10.954C17.7951 11.1422 17.6422 11.2951 17.454 11.391C17.2401 11.5 16.9601 11.5 16.4 11.5H13.6C13.0399 11.5 12.7599 11.5 12.546 11.391C12.3578 11.2951 12.2049 11.1422 12.109 10.954C12 10.7401 12 10.4601 12 9.9V8.1Z" stroke="#425061"/>
<path d="M12 16.1C12 15.5399 12 15.2599 12.109 15.046C12.2049 14.8578 12.3578 14.7049 12.546 14.609C12.7599 14.5 13.0399 14.5 13.6 14.5H13.8371C14.0817 14.5 14.2041 14.5 14.3192 14.5276C14.4212 14.5522 14.5188 14.5926 14.6083 14.6474C14.7092 14.7093 14.7957 14.7958 14.9687 14.9689L15.0312 15.0314C15.2042 15.2045 15.2907 15.291 15.3917 15.3529C15.4812 15.4078 15.5788 15.4482 15.6809 15.4727C15.796 15.5004 15.9184 15.5003 16.1631 15.5003L16.3997 15.5003C16.9599 15.5002 17.2399 15.5001 17.4539 15.6091C17.6421 15.705 17.7951 15.858 17.891 16.0461C18 16.2601 18 16.5401 18 17.1003V17.9C18 18.4601 18 18.7401 17.891 18.954C17.7951 19.1422 17.6422 19.2951 17.454 19.391C17.2401 19.5 16.9601 19.5 16.4 19.5H13.6C13.0399 19.5 12.7599 19.5 12.546 19.391C12.3578 19.2951 12.2049 19.1422 12.109 18.954C12 18.7401 12 18.4601 12 17.9V16.1Z" stroke="#425061"/>
</svg>
