<svg width="24" height="25" viewBox="0 0 24 25" fill="none" xmlns="http://www.w3.org/2000/svg">
<rect x="2" y="2.5" width="20" height="20" rx="5" fill="#2A3748"/>
<path fill-rule="evenodd" clip-rule="evenodd" d="M8.53434 13.4806C8.39857 13.3449 8.31443 13.1575 8.31514 12.9503C8.31514 12.5359 8.6503 12.2008 9.06467 12.2008H15.8416C16.2559 12.2008 16.5911 12.5359 16.5911 12.9503C16.5911 13.3647 16.2559 13.6998 15.8416 13.6998H9.06467C8.85749 13.7005 8.6701 13.6164 8.53434 13.4806Z" fill="white"/>
<path fill-rule="evenodd" clip-rule="evenodd" d="M11.9221 16.8739C11.7863 16.7381 11.7022 16.5508 11.7029 16.3436L11.7036 9.56031C11.7036 9.14594 12.0388 8.81077 12.4531 8.81077C12.8682 8.81148 13.2034 9.14665 13.2027 9.56031L13.202 16.3436C13.202 16.7579 12.8668 17.0931 12.4524 17.0931C12.2452 17.0938 12.0571 17.009 11.9221 16.8739Z" fill="white"/>
</svg>
