<svg width="24" height="24" viewBox="0 0 24 24" fill="none" xmlns="http://www.w3.org/2000/svg">
<path fill-rule="evenodd" clip-rule="evenodd" d="M13 4C13 3.44772 12.5523 3 12 3C11.4477 3 11 3.44772 11 4V5.08296C8.16229 5.55904 6 8.027 6 11V14C6 14.176 6.00758 14.3501 6.02242 14.5223C4.81446 15.2106 4 16.5102 4 18V19C4 19.5523 4.44772 20 5 20H8.64494C9.07521 21.4457 10.4145 22.5 12 22.5C13.5855 22.5 14.9248 21.4457 15.3551 20H19C19.5523 20 20 19.5523 20 19V18C20 16.5102 19.1855 15.2106 17.9776 14.5223C17.9924 14.3501 18 14.176 18 14V11C18 8.027 15.8377 5.55904 13 5.08296V4Z" fill="#FF7CF2"/>
<path d="M4.26775 7.6533C4.57964 6.28982 5.42147 5.18516 6.5262 4.50696" stroke="#FF7CF2" stroke-linecap="round"/>
<path d="M1.9999 7.82583C2.5219 5.54378 3.93088 3.69492 5.77986 2.55981" stroke="#FF7CF2" stroke-linecap="round"/>
<path d="M19.2584 7.6533C18.9465 6.28982 18.1046 5.18516 16.9999 4.50696" stroke="#FF7CF2" stroke-linecap="round"/>
<path d="M21.5262 7.82583C21.0042 5.54378 19.5952 3.69492 17.7463 2.55981" stroke="#FF7CF2" stroke-linecap="round"/>
</svg>
