<svg width="24" height="24" viewBox="0 0 24 24" fill="none" xmlns="http://www.w3.org/2000/svg">
<path fill-rule="evenodd" clip-rule="evenodd" d="M13 3C13 2.44772 12.5523 2 12 2C11.4477 2 11 2.44772 11 3V4.08296C8.16229 4.55904 6 7.027 6 10V13C6 13.176 6.00758 13.3501 6.02242 13.5223C4.81446 14.2106 4 15.5102 4 17V18C4 18.5523 4.44772 19 5 19H8.64494C9.07521 20.4457 10.4145 21.5 12 21.5C13.5855 21.5 14.9248 20.4457 15.3551 19H19C19.5523 19 20 18.5523 20 18V17C20 15.5102 19.1855 14.2106 17.9776 13.5223C17.9924 13.3501 18 13.176 18 13V10C18 7.027 15.8377 4.55904 13 4.08296V3Z" fill="black"/>
</svg>
