<svg width="24" height="24" viewBox="0 0 24 24" fill="none" xmlns="http://www.w3.org/2000/svg">
<path d="M10.6621 1.51341L2.66207 8.71341C2.24064 9.0927 2 9.63303 2 10.2V20.3093C2 21.4138 2.89543 22.3093 4 22.3093H7C8.10457 22.3093 9 21.4138 9 20.3093V14.3093C9 13.2047 9.89543 12.3093 11 12.3093H13C14.1046 12.3093 15 13.2047 15 14.3093V20.3093C15 21.4138 15.8954 22.3093 17 22.3093H20C21.1046 22.3093 22 21.4138 22 20.3093V10.2C22 9.63303 21.7594 9.0927 21.3379 8.71341L13.3379 1.51341C12.5773 0.828862 11.4227 0.828863 10.6621 1.51341Z" fill="black"/>
</svg>
