<svg width="106" height="106" viewBox="0 0 106 106" fill="none" xmlns="http://www.w3.org/2000/svg">
<path fill-rule="evenodd" clip-rule="evenodd" d="M78 1H28C13.0883 1 1 13.0883 1 28V78C1 92.9117 13.0883 105 28 105H78C92.9117 105 105 92.9117 105 78V28C105 13.0883 92.9117 1 78 1ZM28 0C12.536 0 0 12.536 0 28V78C0 93.464 12.536 106 28 106H78C93.464 106 106 93.464 106 78V28C106 12.536 93.464 0 78 0H28Z" fill="white"/>
<path d="M67.8954 21.7436H49.5626L39.2504 43.4317H53L33.5214 84.2564H50.7084L72.4786 37.0528H61.0206L67.8954 21.7436Z" fill="white"/>
</svg>
