<svg width="24" height="24" viewBox="0 0 24 24" fill="none" xmlns="http://www.w3.org/2000/svg">
<path fill-rule="evenodd" clip-rule="evenodd" d="M24 12C24 18.6274 18.6274 24 12 24C5.37258 24 0 18.6274 0 12C0 5.37258 5.37258 0 12 0C18.6274 0 24 5.37258 24 12ZM8.42573 8.55232C8.49223 7.86518 9.10318 7.36204 9.79033 7.42854L14.948 7.92768C15.5432 7.98527 16.0142 8.4563 16.0718 9.05146L16.571 14.2092C16.6375 14.8963 16.1343 15.5073 15.4472 15.5738C14.76 15.6403 14.1491 15.1371 14.0826 14.45L13.8386 11.9291L10.0558 15.712C9.5676 16.2002 8.77615 16.2002 8.28799 15.712C7.79984 15.2239 7.79984 14.4324 8.28799 13.9442L12.0713 10.161L9.54952 9.91692C8.86237 9.85042 8.35924 9.23947 8.42573 8.55232Z" fill="white"/>
</svg>
