<svg width="24" height="24" viewBox="0 0 24 24" fill="none" xmlns="http://www.w3.org/2000/svg">
<path fill-rule="evenodd" clip-rule="evenodd" d="M12 22C17.5228 22 22 17.5228 22 12C22 6.47715 17.5228 2 12 2C6.47715 2 2 6.47715 2 12C2 17.5228 6.47715 22 12 22ZM7.40006 13.2001C7.84049 12.8697 8.46474 12.9577 8.79692 13.3959L8.80156 13.4018C8.80751 13.4093 8.81883 13.4234 8.83537 13.4431C8.86852 13.4826 8.92225 13.5442 8.99548 13.6207C9.14278 13.7744 9.36413 13.9829 9.65073 14.1913C10.2278 14.611 11.0256 15.0001 12.0001 15.0001C12.9745 15.0001 13.7723 14.611 14.3494 14.1913C14.636 13.9829 14.8573 13.7744 15.0046 13.6207C15.0779 13.5442 15.1316 13.4826 15.1647 13.4431C15.1813 13.4234 15.1926 13.4093 15.1986 13.4018L15.2032 13.3959C15.5354 12.9577 16.1596 12.8697 16.6001 13.2001C17.0419 13.5314 17.1314 14.1582 16.8001 14.6001L16.0001 14.0001C16.8001 14.6001 16.7998 14.6004 16.7996 14.6007L16.799 14.6014L16.7979 14.6029L16.7952 14.6066L16.7879 14.616L16.7666 14.6432C16.7494 14.665 16.7261 14.6939 16.6967 14.7289C16.6381 14.7987 16.5551 14.8934 16.4486 15.0045C16.2365 15.2258 15.9266 15.5172 15.5257 15.8088C14.7278 16.3891 13.5256 17.0001 12.0001 17.0001C10.4745 17.0001 9.27233 16.3891 8.47439 15.8088C8.07349 15.5172 7.76358 15.2258 7.55151 15.0045C7.44506 14.8934 7.36207 14.7987 7.30342 14.7289C7.27407 14.6939 7.25071 14.665 7.23347 14.6432L7.21217 14.616L7.20496 14.6066L7.20222 14.6029L7.20107 14.6014L7.20055 14.6007C7.2003 14.6004 7.20006 14.6001 8.00006 14.0001L7.20006 14.6001C6.86869 14.1582 6.95823 13.5314 7.40006 13.2001ZM14 9C14 8.44772 14.4477 8 15 8H15.01C15.5623 8 16.01 8.44772 16.01 9C16.01 9.55228 15.5623 10 15.01 10H15C14.4477 10 14 9.55228 14 9ZM9 8C8.44772 8 8 8.44772 8 9C8 9.55228 8.44772 10 9 10H9.01C9.56228 10 10.01 9.55228 10.01 9C10.01 8.44772 9.56228 8 9.01 8H9Z" fill="black"/>
</svg>
