<svg width="24" height="24" viewBox="0 0 24 24" fill="none" xmlns="http://www.w3.org/2000/svg">
<path d="M6.44965 11.6074L10.2736 7.84237L10.2736 19.7991C10.2736 19.9594 10.3218 20.1442 10.4627 20.2922C10.6057 20.4425 10.7923 20.5 10.9599 20.5L12.0401 20.5C12.1966 20.5 12.3798 20.4552 12.529 20.3186C12.6829 20.1778 12.745 19.99 12.745 19.8174L12.745 7.84237L16.569 11.6074L16.5697 11.6081C16.8386 11.8719 17.2617 11.8719 17.5306 11.6081L18.2942 10.8593L17.9452 10.5033L18.2942 10.8593C18.5685 10.5903 18.5686 10.159 18.2945 9.88985C18.2944 9.88976 18.2943 9.88968 18.2942 9.88959L11.9996 3.69833L11.9797 3.67869L11.9576 3.66141C11.8472 3.57481 11.6951 3.5 11.5093 3.5C11.3235 3.5 11.1714 3.57481 11.061 3.66141L11.0393 3.67847L11.0195 3.69781L4.70578 9.88959C4.4314 10.1587 4.43141 10.5902 4.70578 10.8593L4.70576 10.8593L4.71011 10.8635L5.49079 11.6108C5.75985 11.8719 6.18092 11.871 6.44894 11.6081L6.44965 11.6074Z" fill="#FF36B4" stroke="#FF36B4"/>
</svg>
