<svg width="24" height="24" viewBox="0 0 24 24" fill="none" xmlns="http://www.w3.org/2000/svg">
<path d="M10.2736 16.1576L6.44965 12.3926L6.44895 12.3919C6.18092 12.129 5.75986 12.1281 5.49079 12.3892L4.71011 13.1365L4.70576 13.1407L4.70578 13.1407C4.43141 13.4098 4.4314 13.8413 4.70579 14.1104L11.0195 20.3022L11.0393 20.3215L11.061 20.3386C11.1714 20.4252 11.3235 20.5 11.5093 20.5C11.6951 20.5 11.8472 20.4252 11.9576 20.3386L11.9797 20.3213L11.9996 20.3017L18.2942 14.1104L10.2736 16.1576ZM10.2736 16.1576L10.2736 4.20091C10.2736 4.04056 10.3218 3.8558 10.4627 3.70781C10.6057 3.55752 10.7923 3.5 10.9599 3.5L12.0401 3.5C12.1966 3.5 12.3798 3.54481 12.529 3.6814C12.6829 3.82222 12.745 4.00998 12.745 4.18265L12.745 16.1576L16.569 12.3926L16.5697 12.3919C16.8386 12.1281 17.2617 12.1281 17.5306 12.3919L18.2942 13.1407L17.9456 13.4962L18.2942 13.1407C18.5684 13.4096 18.5686 13.8408 18.2947 14.1099L10.2736 16.1576Z" fill="#0E5DDC" stroke="#0E5DDC"/>
</svg>
