<svg width="15" height="16" viewBox="0 0 15 16" fill="none" xmlns="http://www.w3.org/2000/svg">
<path d="M2.64387 8.40707L2.64387 8.40708L2.64634 8.40955C2.9216 8.68481 3.36618 8.68482 3.64145 8.40955L3.64146 8.40957L3.64496 8.406L5.95589 6.04838L5.95589 14.792C5.95589 14.9614 6.01097 15.1502 6.15834 15.2976C6.30571 15.4449 6.49445 15.5 6.66389 15.5L8.27989 15.5C8.42077 15.5 8.60741 15.465 8.76407 15.3257C8.93024 15.178 8.98789 14.9802 8.98789 14.808L8.98789 6.04839L11.2988 8.406L11.2988 8.40602L11.3023 8.40955C11.5776 8.68482 12.0222 8.68482 12.2974 8.40955L12.2975 8.40956L12.2999 8.40707L13.435 7.25598C13.7085 6.98081 13.7082 6.53787 13.4341 6.26308C13.4339 6.26287 13.4337 6.26266 13.4334 6.26245L7.97848 0.775478L7.97745 0.774444C7.86109 0.65809 7.68857 0.555998 7.47189 0.555998C7.25522 0.555998 7.08269 0.65809 6.96634 0.774443L6.96531 0.77548L1.51034 6.26244C1.51019 6.26259 1.51004 6.26274 1.50989 6.26289C1.23559 6.53767 1.23523 6.98078 1.5088 7.256C1.50931 7.25652 1.50982 7.25704 1.51034 7.25755L2.64387 8.40707Z" fill="#4F4F4F" stroke="#4F4F4F"/>
</svg>
