<svg width="125" height="16" viewBox="0 0 125 16" fill="none" xmlns="http://www.w3.org/2000/svg">
<path d="M9.97627 15.706H0.265218C0.102007 15.706 0 15.601 0 15.4331V0.566929C0 0.39895 0.102007 0.293963 0.265218 0.293963H2.48897C2.65218 0.293963 2.75419 0.39895 2.75419 0.566929V12.9974H9.97627C10.1395 12.9974 10.2415 13.1024 10.2415 13.2703V15.4331C10.2415 15.601 10.1395 15.706 9.97627 15.706Z" fill="white"/>
<path d="M14.0424 15.706H11.5126C11.329 15.706 11.227 15.5801 11.3086 15.3911L17.2862 0.503937C17.3474 0.356956 17.4494 0.293963 17.5922 0.293963H19.4895C19.6323 0.293963 19.7343 0.356956 19.7956 0.503937L25.7732 15.3911C25.8548 15.5801 25.7528 15.706 25.5691 15.706H22.9986C22.8558 15.706 22.7538 15.643 22.6925 15.4961L21.6317 12.6194H15.4093L14.3484 15.4961C14.2872 15.643 14.1852 15.706 14.0424 15.706ZM18.5103 4.15748L16.3681 9.99475H20.6524L18.5103 4.15748Z" fill="white"/>
<path d="M34.0947 16C29.7288 16 26.5462 12.8294 26.5462 8C26.5462 3.1706 29.7288 0 34.0947 0C38.4606 0 41.6432 3.1706 41.6432 8C41.6432 12.8294 38.4606 16 34.0947 16ZM34.0947 13.2283C36.9713 13.2283 38.787 11.0446 38.787 8C38.787 4.95538 36.9713 2.77165 34.0947 2.77165C31.2181 2.77165 29.4024 4.95538 29.4024 8C29.4024 11.0446 31.2181 13.2283 34.0947 13.2283Z" fill="white"/>
<path d="M46.7958 15.706H44.6741C44.5109 15.706 44.4089 15.601 44.4089 15.4331V0.566929C44.4089 0.39895 44.5109 0.293963 44.6741 0.293963H47.0202C47.163 0.293963 47.2651 0.356956 47.3467 0.482939L54.0383 11.1286V0.566929C54.0383 0.39895 54.1403 0.293963 54.3035 0.293963H56.4253C56.5885 0.293963 56.6905 0.39895 56.6905 0.566929V15.4331C56.6905 15.601 56.5885 15.706 56.4253 15.706H54.0995C53.9567 15.706 53.8547 15.643 53.7731 15.5171L47.061 4.85039V15.4331C47.061 15.601 46.959 15.706 46.7958 15.706Z" fill="white"/>
<path d="M74.611 15.706H72.3873C72.2241 15.706 72.1221 15.601 72.1221 15.4331V0.566929C72.1221 0.39895 72.2241 0.293963 72.3873 0.293963H76.9164C80.8538 0.293963 82.8532 2.26772 82.8532 5.66929C82.8532 9.07087 80.8538 11.0446 76.9164 11.0446H74.8762V15.4331C74.8762 15.601 74.7742 15.706 74.611 15.706ZM74.8762 2.91864V8.41995H76.8144C78.8545 8.41995 79.997 7.55905 79.997 5.6063C79.997 3.77953 78.8545 2.91864 76.8144 2.91864H74.8762Z" fill="white"/>
<path d="M85.3077 15.706H82.778C82.5943 15.706 82.4923 15.5801 82.5739 15.3911L88.5515 0.503937C88.6127 0.356956 88.7148 0.293963 88.8576 0.293963H90.7549C90.8977 0.293963 90.9997 0.356956 91.0609 0.503937L97.0385 15.3911C97.1201 15.5801 97.0181 15.706 96.8345 15.706H94.2639C94.1211 15.706 94.0191 15.643 93.9579 15.4961L92.897 12.6194H86.6746L85.6137 15.4961C85.5525 15.643 85.4505 15.706 85.3077 15.706ZM89.7756 4.15748L87.6335 9.99475H91.9178L89.7756 4.15748Z" fill="white"/>
<path d="M105.115 16C100.729 16 97.8115 12.8504 97.8115 8C97.8115 3.1496 100.872 0 105.156 0C108.298 0 110.562 1.51181 111.562 4.13648C111.623 4.30446 111.562 4.45144 111.399 4.49344L109.216 5.12336C109.073 5.16535 108.951 5.10236 108.889 4.95538C108.175 3.54856 106.89 2.77165 105.197 2.77165C102.341 2.77165 100.668 4.85039 100.668 8C100.668 11.1706 102.361 13.2283 105.197 13.2283C107.115 13.2283 108.543 12.3045 109.216 10.3727C109.277 10.2047 109.379 10.1417 109.542 10.1837L111.705 10.8136C111.868 10.8556 111.929 10.9606 111.888 11.0866C111.093 13.9843 108.767 16 105.115 16Z" fill="white"/>
<path d="M124.535 15.706H114.824C114.661 15.706 114.559 15.601 114.559 15.4331V0.566929C114.559 0.39895 114.661 0.293963 114.824 0.293963H124.29C124.453 0.293963 124.555 0.39895 124.555 0.566929V2.68766C124.555 2.85564 124.453 2.96063 124.29 2.96063H117.313V6.46719H123.617C123.78 6.46719 123.882 6.57218 123.882 6.74016V8.8189C123.882 8.98688 123.78 9.09186 123.617 9.09186H117.313V13.0394H124.535C124.698 13.0394 124.8 13.1444 124.8 13.3123V15.4331C124.8 15.601 124.698 15.706 124.535 15.706Z" fill="white"/>
<path d="M67.8153 0.234283H63.2677L60.7096 5.60203H64.1204L59.2885 15.706H63.5519L68.9523 4.02328H66.11L67.8153 0.234283Z" fill="white"/>
</svg>
