<svg width="28" height="28" viewBox="0 0 28 28" fill="none" xmlns="http://www.w3.org/2000/svg">
<path d="M17.6265 9.71935L11.9065 15.4527L9.70651 13.2527C9.58698 13.1131 9.43989 12.9997 9.27447 12.9197C9.10905 12.8397 8.92887 12.7947 8.74525 12.7876C8.56162 12.7805 8.37851 12.8115 8.20741 12.8785C8.03631 12.9455 7.88092 13.0472 7.75098 13.1771C7.62104 13.3071 7.51936 13.4625 7.45233 13.6336C7.38529 13.8047 7.35435 13.9878 7.36145 14.1714C7.36854 14.355 7.41351 14.5352 7.49354 14.7006C7.57357 14.8661 7.68693 15.0132 7.82651 15.1327L10.9598 18.2793C11.0844 18.4029 11.2322 18.5007 11.3946 18.567C11.5571 18.6334 11.731 18.667 11.9065 18.666C12.2563 18.6645 12.5915 18.5257 12.8398 18.2793L19.5065 11.6127C19.6315 11.4887 19.7307 11.3413 19.7984 11.1788C19.8661 11.0163 19.9009 10.842 19.9009 10.666C19.9009 10.49 19.8661 10.3157 19.7984 10.1532C19.7307 9.99077 19.6315 9.8433 19.5065 9.71935C19.2567 9.47101 18.9188 9.33162 18.5665 9.33162C18.2143 9.33162 17.8763 9.47101 17.6265 9.71935ZM13.9998 0.666016C11.3628 0.666016 8.7849 1.448 6.59224 2.91309C4.39958 4.37817 2.69062 6.46055 1.68145 8.8969C0.672281 11.3333 0.408237 14.0141 0.922706 16.6006C1.43718 19.187 2.70705 21.5627 4.57175 23.4274C6.43645 25.2921 8.81223 26.562 11.3986 27.0765C13.9851 27.591 16.6659 27.3269 19.1023 26.3177C21.5386 25.3086 23.621 23.5996 25.0861 21.4069C26.5512 19.2143 27.3332 16.6364 27.3332 13.9993C27.3332 12.2484 26.9883 10.5146 26.3182 8.8969C25.6482 7.27923 24.666 5.80937 23.4279 4.57126C22.1898 3.33314 20.72 2.35102 19.1023 1.68096C17.4846 1.01089 15.7508 0.666016 13.9998 0.666016ZM13.9998 24.666C11.8902 24.666 9.82788 24.0404 8.07376 22.8684C6.31964 21.6963 4.95246 20.0304 4.14513 18.0813C3.33779 16.1322 3.12656 13.9875 3.53813 11.9184C3.94971 9.84925 4.96561 7.94864 6.45737 6.45688C7.94913 4.96512 9.84975 3.94922 11.9189 3.53764C13.988 3.12606 16.1327 3.3373 18.0818 4.14463C20.0309 4.95197 21.6968 6.31914 22.8689 8.07327C24.0409 9.82739 24.6665 11.8897 24.6665 13.9993C24.6665 16.8283 23.5427 19.5414 21.5423 21.5418C19.5419 23.5422 16.8288 24.666 13.9998 24.666Z" fill="#6FCF97"/>
</svg>
