<svg width="24" height="25" viewBox="0 0 24 25" fill="none" xmlns="http://www.w3.org/2000/svg">
<path d="M14 8.6335H15C15.2652 8.6335 15.5196 8.52818 15.7071 8.34071C15.8946 8.15325 16 7.89899 16 7.63387C16 7.36875 15.8946 7.1145 15.7071 6.92703C15.5196 6.73956 15.2652 6.63425 15 6.63425H14C13.7348 6.63425 13.4804 6.73956 13.2929 6.92703C13.1054 7.1145 13 7.36875 13 7.63387C13 7.89899 13.1054 8.15325 13.2929 8.34071C13.4804 8.52818 13.7348 8.6335 14 8.6335ZM14 12.632H15C15.2652 12.632 15.5196 12.5267 15.7071 12.3392C15.8946 12.1518 16 11.8975 16 11.6324C16 11.3673 15.8946 11.113 15.7071 10.9255C15.5196 10.7381 15.2652 10.6328 15 10.6328H14C13.7348 10.6328 13.4804 10.7381 13.2929 10.9255C13.1054 11.113 13 11.3673 13 11.6324C13 11.8975 13.1054 12.1518 13.2929 12.3392C13.4804 12.5267 13.7348 12.632 14 12.632ZM9 8.6335H10C10.2652 8.6335 10.5196 8.52818 10.7071 8.34071C10.8946 8.15325 11 7.89899 11 7.63387C11 7.36875 10.8946 7.1145 10.7071 6.92703C10.5196 6.73956 10.2652 6.63425 10 6.63425H9C8.73478 6.63425 8.48043 6.73956 8.29289 6.92703C8.10536 7.1145 8 7.36875 8 7.63387C8 7.89899 8.10536 8.15325 8.29289 8.34071C8.48043 8.52818 8.73478 8.6335 9 8.6335ZM9 12.632H10C10.2652 12.632 10.5196 12.5267 10.7071 12.3392C10.8946 12.1518 11 11.8975 11 11.6324C11 11.3673 10.8946 11.113 10.7071 10.9255C10.5196 10.7381 10.2652 10.6328 10 10.6328H9C8.73478 10.6328 8.48043 10.7381 8.29289 10.9255C8.10536 11.113 8 11.3673 8 11.6324C8 11.8975 8.10536 12.1518 8.29289 12.3392C8.48043 12.5267 8.73478 12.632 9 12.632ZM21 20.629H20V3.63537C20 3.37025 19.8946 3.11599 19.7071 2.92853C19.5196 2.74106 19.2652 2.63574 19 2.63574H5C4.73478 2.63574 4.48043 2.74106 4.29289 2.92853C4.10536 3.11599 4 3.37025 4 3.63537V20.629H3C2.73478 20.629 2.48043 20.7343 2.29289 20.9218C2.10536 21.1093 2 21.3635 2 21.6286C2 21.8938 2.10536 22.148 2.29289 22.3355C2.48043 22.5229 2.73478 22.6283 3 22.6283H21C21.2652 22.6283 21.5196 22.5229 21.7071 22.3355C21.8946 22.148 22 21.8938 22 21.6286C22 21.3635 21.8946 21.1093 21.7071 20.9218C21.5196 20.7343 21.2652 20.629 21 20.629ZM13 20.629H11V16.6305H13V20.629ZM18 20.629H15V15.6309C15 15.3658 14.8946 15.1115 14.7071 14.924C14.5196 14.7366 14.2652 14.6313 14 14.6313H10C9.73478 14.6313 9.48043 14.7366 9.29289 14.924C9.10536 15.1115 9 15.3658 9 15.6309V20.629H6V4.63499H18V20.629Z" fill="#425061"/>
</svg>
