<svg width="16" height="16" viewBox="0 0 16 16" fill="none" xmlns="http://www.w3.org/2000/svg">
<circle cx="8" cy="8" r="7.5" stroke="#EB5757"/>
<path d="M6.4041 11.3898V11.4398H6.4541H9.50441H9.55441V11.3898V10.7921V10.7421H9.50441H8.45176V6.68041V6.63041H8.40176H6.51593H6.46593V6.68041V7.27811V7.32811H6.51593H7.6098V10.7421H6.4541H6.4041V10.7921V11.3898ZM7.57292 4.74892L7.57289 4.7489L7.57172 4.75016C7.46624 4.86318 7.414 5.00276 7.414 5.16556C7.414 5.32325 7.4709 5.45958 7.58322 5.5719C7.69554 5.68422 7.83188 5.74112 7.98956 5.74112C8.14698 5.74112 8.28312 5.68441 8.39533 5.57247C8.51444 5.46054 8.57542 5.32407 8.57542 5.16556C8.57542 5.00732 8.51464 4.87103 8.39592 4.75921C8.28409 4.64048 8.14781 4.5797 7.98956 4.5797C7.82571 4.5797 7.68572 4.63611 7.57292 4.74892Z" fill="#EB5757" stroke="#EB5757" stroke-width="0.1"/>
<path d="M6.26934 11.5254V11.5754H6.31934H9.64083H9.69083V11.5254V10.6565V10.6065H9.64083H8.58818V6.54479V6.49479H8.53818H6.38117H6.33117V6.54479V7.41367V7.46367H6.38117H7.47503V10.6065H6.31934H6.26934V10.6565V11.5254ZM8.35259 10.7921V10.8421H8.40259H9.45523V11.3398H6.50493V10.8421H7.66062H7.71062V10.7921V7.27808V7.22808H7.66062H6.56676V6.73038H8.35259V10.7921ZM7.47621 4.65467L7.47619 4.65465L7.47502 4.65591L7.47342 4.65761L7.47342 4.65762C7.34271 4.79766 7.27923 4.97111 7.27923 5.16554C7.27923 5.35959 7.35071 5.5303 7.48817 5.66775C7.62563 5.80521 7.79633 5.87669 7.99039 5.87669C8.18343 5.87669 8.35338 5.80596 8.49048 5.66987C8.63456 5.53381 8.71184 5.36262 8.71184 5.16554C8.71184 4.96947 8.63535 4.799 8.49266 4.66327C8.35692 4.52057 8.18646 4.44408 7.99039 4.44408C7.79207 4.44408 7.61714 4.51374 7.47786 4.65301L7.47621 4.65467ZM8.32717 5.50004L8.32716 5.50002L8.32601 5.50116C8.23223 5.59495 8.12125 5.6411 7.99039 5.6411C7.85953 5.6411 7.74854 5.59495 7.65476 5.50116C7.56098 5.40738 7.51483 5.2964 7.51483 5.16554C7.51483 5.02637 7.55857 4.91197 7.64506 4.819C7.73824 4.72611 7.85226 4.67967 7.99039 4.67967C8.12016 4.67967 8.23082 4.72841 8.32489 4.82875L8.32482 4.82882L8.32717 4.83103C8.42752 4.9251 8.47625 5.03576 8.47625 5.16554C8.47625 5.29531 8.42752 5.40597 8.32717 5.50004Z" stroke="#EB5757" stroke-width="0.1"/>
</svg>
