<svg width="24" height="24" viewBox="0 0 24 24" fill="none" xmlns="http://www.w3.org/2000/svg">
<path d="M21 1.5C21.3978 1.5 21.7794 1.65804 22.0607 1.93934C22.342 2.22064 22.5 2.60218 22.5 3V21C22.5 21.3978 22.342 21.7794 22.0607 22.0607C21.7794 22.342 21.3978 22.5 21 22.5H3C2.60218 22.5 2.22064 22.342 1.93934 22.0607C1.65804 21.7794 1.5 21.3978 1.5 21V3C1.5 2.60218 1.65804 2.22064 1.93934 1.93934C2.22064 1.65804 2.60218 1.5 3 1.5H21ZM3 0C2.20435 0 1.44129 0.316071 0.87868 0.87868C0.316071 1.44129 0 2.20435 0 3L0 21C0 21.7956 0.316071 22.5587 0.87868 23.1213C1.44129 23.6839 2.20435 24 3 24H21C21.7956 24 22.5587 23.6839 23.1213 23.1213C23.6839 22.5587 24 21.7956 24 21V3C24 2.20435 23.6839 1.44129 23.1213 0.87868C22.5587 0.316071 21.7956 0 21 0L3 0Z" fill="#6FCF97"/>
<path d="M11.9961 4.88632C12.0947 4.88619 12.1925 4.90553 12.2836 4.94322C12.3748 4.98092 12.4576 5.03623 12.5274 5.10598C12.5971 5.17574 12.6524 5.25857 12.6901 5.34974C12.7278 5.44091 12.7472 5.53861 12.747 5.63726L12.746 11.2513L18.3601 11.2503C18.4587 11.2503 18.5563 11.2697 18.6474 11.3074C18.7385 11.3452 18.8213 11.4005 18.8911 11.4702C18.9608 11.54 19.0161 11.6227 19.0538 11.7138C19.0916 11.805 19.111 11.9026 19.111 12.0012C19.111 12.0998 19.0916 12.1975 19.0538 12.2886C19.0161 12.3797 18.9608 12.4625 18.8911 12.5322C18.8213 12.602 18.7385 12.6573 18.6474 12.695C18.5563 12.7327 18.4587 12.7522 18.3601 12.7522L12.746 12.7511L12.747 18.3652C12.747 18.4638 12.7276 18.5615 12.6899 18.6526C12.6521 18.7437 12.5968 18.8265 12.5271 18.8962C12.4574 18.9659 12.3746 19.0212 12.2835 19.059C12.1924 19.0967 12.0947 19.1161 11.9961 19.1161C11.8975 19.1161 11.7998 19.0967 11.7087 19.059C11.6176 19.0212 11.5348 18.9659 11.4651 18.8962C11.3954 18.8265 11.34 18.7437 11.3023 18.6526C11.2646 18.5615 11.2451 18.4638 11.2451 18.3652L11.2462 12.7511L5.63213 12.7522C5.53352 12.7522 5.43587 12.7327 5.34476 12.695C5.25365 12.6573 5.17086 12.602 5.10113 12.5322C5.0314 12.4625 4.97609 12.3797 4.93835 12.2886C4.90061 12.1975 4.88118 12.0998 4.88118 12.0012C4.88118 11.9026 4.90061 11.805 4.93835 11.7138C4.97609 11.6227 5.0314 11.54 5.10113 11.4702C5.17086 11.4005 5.25365 11.3452 5.34476 11.3074C5.43587 11.2697 5.53352 11.2503 5.63213 11.2503L11.2462 11.2513L11.2451 5.63726C11.245 5.53861 11.2644 5.44091 11.3021 5.34974C11.3397 5.25857 11.3951 5.17574 11.4648 5.10598C11.5346 5.03623 11.6174 4.98092 11.7086 4.94322C11.7997 4.90553 11.8974 4.88619 11.9961 4.88632Z" fill="#6FCF97"/>
</svg>
