<svg width="24" height="24" viewBox="0 0 24 24" fill="none" xmlns="http://www.w3.org/2000/svg">
<path d="M3 11.0015C3.26521 11.0015 3.51957 11.1068 3.7071 11.2944C3.89464 11.4819 4 11.7362 4 12.0015C3.98809 13.8745 4.62971 15.693 5.81434 17.1439C6.99897 18.5948 8.65247 19.5871 10.49 19.9501C12.3276 20.313 14.2342 20.0238 15.8815 19.1322C17.5288 18.2407 18.8136 16.8026 19.5147 15.0657C20.2158 13.3288 20.2892 11.4018 19.7224 9.61654C19.1556 7.8313 17.9839 6.2996 16.4093 5.28524C14.8347 4.27089 12.9556 3.83738 11.0957 4.05938C9.23587 4.28137 7.51164 5.14498 6.22 6.50146H8.62C8.88521 6.50146 9.13957 6.60682 9.3271 6.79436C9.51464 6.98189 9.62 7.23625 9.62 7.50146C9.62 7.76668 9.51464 8.02103 9.3271 8.20857C9.13957 8.39611 8.88521 8.50146 8.62 8.50146H4.09C3.82478 8.50146 3.57043 8.39611 3.38289 8.20857C3.19535 8.02103 3.09 7.76668 3.09 7.50146V3.00146C3.09 2.73625 3.19535 2.48189 3.38289 2.29436C3.57043 2.10682 3.82478 2.00146 4.09 2.00146C4.35521 2.00146 4.60957 2.10682 4.7971 2.29436C4.98464 2.48189 5.09 2.73625 5.09 3.00146V4.77146C6.75533 3.17952 8.91925 2.21142 11.216 2.03079C13.5127 1.85017 15.8014 2.46811 17.6951 3.78015C19.5888 5.0922 20.9714 7.01787 21.6092 9.23165C22.2469 11.4454 22.1008 13.8115 21.1954 15.93C20.29 18.0484 18.6809 19.7893 16.6401 20.8583C14.5993 21.9273 12.252 22.2589 9.99496 21.7969C7.73792 21.335 5.7096 20.1079 4.25286 18.3231C2.79613 16.5383 2.00033 14.3053 2 12.0015C2 11.7362 2.10535 11.4819 2.29289 11.2944C2.48043 11.1068 2.73478 11.0015 3 11.0015Z" fill="#425061"/>
</svg>
