<svg width="24" height="24" viewBox="0 0 24 24" fill="none" xmlns="http://www.w3.org/2000/svg">
<path d="M21.7114 20.29L18.0014 16.61C19.4415 14.8144 20.1389 12.5353 19.9502 10.2413C19.7615 7.94733 18.701 5.81281 16.9869 4.27667C15.2727 2.74053 13.0352 1.91954 10.7343 1.9825C8.43341 2.04546 6.24409 2.98759 4.61651 4.61517C2.98893 6.24275 2.0468 8.43207 1.98384 10.7329C1.92088 13.0338 2.74188 15.2714 4.27801 16.9855C5.81415 18.6997 7.94867 19.7601 10.2427 19.9488C12.5367 20.1375 14.8158 19.4401 16.6114 18L20.2914 21.68C20.3843 21.7738 20.4949 21.8482 20.6168 21.8989C20.7387 21.9497 20.8694 21.9758 21.0014 21.9758C21.1334 21.9758 21.2641 21.9497 21.3859 21.8989C21.5078 21.8482 21.6184 21.7738 21.7114 21.68C21.8916 21.4936 21.9924 21.2444 21.9924 20.985C21.9924 20.7257 21.8916 20.4765 21.7114 20.29ZM11.0014 18C9.6169 18 8.26352 17.5895 7.11238 16.8203C5.96123 16.0511 5.06403 14.9579 4.53421 13.6788C4.0044 12.3997 3.86578 10.9923 4.13587 9.63439C4.40597 8.27653 5.07265 7.02925 6.05162 6.05028C7.03059 5.07131 8.27787 4.40463 9.63574 4.13453C10.9936 3.86443 12.4011 4.00306 13.6802 4.53287C14.9592 5.06268 16.0525 5.95989 16.8217 7.11103C17.5908 8.26218 18.0014 9.61556 18.0014 11C18.0014 12.8565 17.2639 14.637 15.9511 15.9498C14.6384 17.2625 12.8579 18 11.0014 18Z" fill="white"/>
</svg>
