<svg width="317" height="48" viewBox="0 0 317 48" fill="none" xmlns="http://www.w3.org/2000/svg">
<g clip-path="url(#clip0_2174_31122)">
<path d="M48.4465 5.23972C48.1405 5.26158 50.5668 -1.20864 42.734 0.204898C22.0337 3.93548 7.41014 17.7211 4.32804 21.6703C1.24594 25.6122 -8.1898 42.0792 16.7439 40.1556C41.6775 38.232 55.4559 23.9218 57.3649 21.2914C64.8406 10.9886 61.9115 4.16135 48.4465 5.24701V5.23972ZM43.3461 1.87346C43.3461 1.87346 48.2425 0.75137 46.2315 5.59675C46.2315 5.59675 34.0342 6.75527 17.028 16.8249C17.028 16.8249 25.8809 4.53295 43.3388 1.87346H43.3461ZM36.854 33.5979C25.0284 38.0061 13.8002 37.1828 11.7746 31.7399C9.74904 26.3044 17.6838 18.3259 29.5094 13.9104C41.3351 9.49491 52.5632 10.3255 54.5888 15.7611C56.6217 21.1967 48.6797 29.1824 36.854 33.5906V33.5979Z" fill="white"/>
<path d="M61.46 48.0028L66.6988 18.2894H74.4295L73.8685 21.4589C75.1727 20.1255 76.3167 19.2147 77.2931 18.7411C78.6119 18.1072 80.0036 17.7866 81.4608 17.7866C84.3462 17.7866 86.3791 18.8869 87.5667 21.0873C88.7544 23.2951 89.0677 26.0201 88.4921 29.2625C87.8582 32.8474 86.5175 35.5797 84.4628 37.4669C82.408 39.354 80.0764 40.294 77.4461 40.294C76.171 40.294 75.0489 40.0754 74.0798 39.6382C73.1107 39.201 72.2801 38.5598 71.6098 37.7L69.7955 47.9883H61.46V48.0028ZM73.0743 29.0876C72.7756 30.7854 72.914 32.0459 73.4823 32.8692C74.0507 33.6926 74.8886 34.1006 75.9888 34.1006C76.9506 34.1006 77.825 33.7072 78.6119 32.9202C79.4061 32.1333 79.9598 30.7926 80.295 28.8982C80.601 27.1568 80.4845 25.8817 79.9526 25.0583C79.4207 24.2423 78.6629 23.8342 77.6938 23.8342C76.6373 23.8342 75.6828 24.2496 74.8376 25.0729C73.9851 25.8963 73.4022 27.2296 73.0743 29.0804V29.0876Z" fill="white"/>
<path d="M29.0869 18.2749H37.0217L38.1146 31.6307L44.8107 18.2749H52.1699L54.3266 31.74L60.1483 18.2749H68.0321L56.3813 39.6601H49.0878L47.0257 26.7926L40.5701 39.6601H33.2474L29.0869 18.2749Z" fill="white"/>
<path d="M131.295 25.2749H118.197V28.0065H128.871V30.974H117.176V33.7495H123.566V35.236H118.24V38.0115H128.915V41.2313H131.339V35.2415H125.991V33.755H132.381V30.9795H131.295V25.2804V25.2749Z" fill="white"/>
<path d="M164.991 25.2749H162.566V26.6517H155.205V25.2749H152.781V34.1609H164.991V25.2749ZM162.566 29.6082V31.1769H155.205V29.6082H162.566Z" fill="white"/>
<path d="M151.261 35.0386V37.9347H157.651V41.0174H160.081V37.9347H166.472V35.0386H151.261Z" fill="white"/>
<path d="M176.866 25.2749H174.436V27.1399H171.342V25.2749H168.918V34.0896H176.866V25.2749ZM174.436 29.8276V31.4018H171.342V29.8276H174.436Z" fill="white"/>
<path d="M171.82 40.4854H181.863V34.7534H169.39V37.3534H179.438V37.8855H169.39V43.6613H182.203V41.0614H171.814V40.4854H171.82Z" fill="white"/>
<path d="M181.863 25.3022H179.438V34.095H181.863V30.9191H183.552V28.1436H181.863V25.3022Z" fill="white"/>
<path d="M188.692 35.2524H186.262V40.2714H199.695V37.4959H188.692V35.2524Z" fill="white"/>
<path d="M197.266 25.2749V28.1436H194.781V30.9191H197.266V34.1389H199.695V25.2749H197.266Z" fill="white"/>
<path d="M187.008 34.265C187.008 34.265 189.778 31.2646 189.976 31.0507C190.179 31.2701 192.965 34.265 192.965 34.265L194.649 31.8625C194.649 31.8625 191.265 28.5001 190.821 28.0558H194.007V25.2803H185.917V28.0558H189.104C188.665 28.5001 185.341 31.8405 185.341 31.8405L187.003 34.2705L187.008 34.265Z" fill="white"/>
<path d="M108.762 30.2722C108.762 29.2355 108.378 28.3305 107.61 27.5625C106.842 26.7946 105.943 26.4106 104.9 26.4106C103.787 26.4106 102.844 26.7946 102.081 27.5625C101.313 28.2921 100.929 29.1916 100.929 30.2722C100.929 31.3528 101.313 32.214 102.081 32.9819C102.849 33.7882 103.787 34.1941 104.9 34.1941C105.937 34.1941 106.837 33.7937 107.61 32.9819C108.378 32.214 108.762 31.3089 108.762 30.2722ZM105.91 31.3363C105.614 31.6435 105.268 31.8026 104.868 31.8026C104.44 31.8026 104.078 31.649 103.781 31.3363C103.485 31.0401 103.337 30.6946 103.337 30.2941C103.337 29.8937 103.485 29.5317 103.781 29.252C104.078 28.9558 104.44 28.8077 104.868 28.8077C105.268 28.8077 105.614 28.9558 105.91 29.252C106.206 29.5482 106.354 29.8937 106.354 30.2941C106.354 30.6946 106.206 31.0401 105.91 31.3363Z" fill="white"/>
<path d="M103.485 35.2305H101.061V40.2494H114.121V37.4739H103.491V35.2305H103.485Z" fill="white"/>
<path d="M113.704 28.1275V25.2861H111.28V34.1173H113.704V30.8975H115.388V28.122H113.704V28.1275Z" fill="white"/>
<path d="M108.987 25.2696H105.992V23.3169H103.568V25.2696H100.551V28.1768H108.992V25.2696H108.987Z" fill="white"/>
<path d="M146.133 25.2915V28.1328H143.648V30.9083H146.133V40.277H148.557V25.2915H146.133Z" fill="white"/>
<path d="M138.41 25.2749L134.23 33.6946L136.517 35.2524L138.914 30.4584L141.333 35.2524L143.648 33.6946L139.463 25.2749H138.41Z" fill="white"/>
<line x1="207.001" y1="25.3604" x2="207.001" y2="40.7574" stroke="white"/>
<path d="M220.034 29.8537H218.73C218.803 29.2214 218.847 28.5745 218.847 27.8834H213.603V29.4273H216.928C216.679 32.0738 215.507 34.0293 212.841 35.6614L213.94 37.014C216.46 35.5143 217.807 33.6323 218.408 31.3975H220.034V33.2354H218.159V34.7939H220.034V39.2342H221.836V26.5749H220.034V29.8537ZM222.802 26.2661V39.8223H224.633V26.2661H222.802Z" fill="white"/>
<path d="M228.236 33.9558C229.789 33.4853 230.858 32.5002 231.444 31.2652C232.044 32.3826 233.07 33.2648 234.564 33.6912L235.472 32.1914C233.48 31.618 232.528 30.28 232.411 28.9274H235.077V27.3541H227.782V28.9274H230.418C230.316 30.4124 229.334 31.8386 227.298 32.4414L228.236 33.9558ZM232.396 33.353H230.448V35.6614C229.291 35.6761 228.192 35.6761 227.24 35.6761L227.459 37.2493C229.73 37.264 232.718 37.2787 235.56 36.7347L235.399 35.3379C234.447 35.4555 233.421 35.5437 232.396 35.6026V33.353ZM239.808 31.6327H238.036V26.2661H236.102V39.8223H238.036V33.2354H239.808V31.6327Z" fill="white"/>
<path d="M252.566 30.0007H245.154V28.1922H252.493V26.6484H243.235V31.5298H252.566V30.0007ZM247.805 38.352C246.003 38.352 245.081 38.0433 245.081 37.3375C245.081 36.6318 246.003 36.3083 247.805 36.3083C249.607 36.3083 250.53 36.6318 250.53 37.3375C250.53 38.0433 249.607 38.352 247.805 38.352ZM247.805 34.838C244.89 34.838 243.132 35.7349 243.132 37.3375C243.132 38.9254 244.89 39.8223 247.805 39.8223C250.72 39.8223 252.493 38.9254 252.493 37.3375C252.493 35.7349 250.72 34.838 247.805 34.838ZM241.755 32.4708V34.0587H253.958V32.4708H241.755Z" fill="white"/>
<path d="M257.443 37.3669H264.972V39.7782H266.906V35.8378H257.443V37.3669ZM263.17 33.5294V32.559H267.096V31.0887H259.523V30.2065H266.818V26.5455H257.589V28.0158H264.914V28.8391H257.619V32.559H261.237V33.5294H256.095V35.0732H268.312V33.5294H263.17Z" fill="white"/>
<path d="M275.679 27.3247H273.746V29.2949C273.746 31.9268 272.632 34.5439 270.274 35.5584L271.431 37.1611C273.042 36.3965 274.141 34.9409 274.742 33.1324C275.342 34.7939 276.382 36.1319 277.935 36.8376L279.034 35.2644C276.749 34.2793 275.679 31.8092 275.679 29.2949V27.3247ZM279.693 26.2661V39.8517H281.627V26.2661H279.693Z" fill="white"/>
<path d="M296.596 32.6472C293.549 32.1326 291.879 30.0301 291.879 28.0452V27.0748H289.814V28.0452C289.814 29.986 288.129 32.1326 285.097 32.6472L285.917 34.2793C288.261 33.8235 289.975 32.5002 290.839 30.78C291.704 32.5002 293.432 33.8088 295.776 34.2793L296.596 32.6472ZM284.804 36.6024V38.1756H297.021V36.6024H284.804Z" fill="white"/>
<path d="M306.175 34.2646H307.977V26.4867H306.175V29.5302H304.857V31.0887H306.175V34.2646ZM305.238 32.015C304.022 32.2356 302.967 32.3091 301.546 32.3238V31.1622H304.286V29.6919H301.546V28.6186H304.754V27.0895H299.686V33.8529H300.609C302.601 33.8529 303.876 33.8235 305.399 33.5441L305.238 32.015ZM303.421 36.4112H308.768V38.1462H303.421V36.4112ZM301.517 39.6606H310.658V34.8968H301.517V39.6606ZM308.827 26.2955V34.3675H310.658V26.2955H308.827Z" fill="white"/>
</g>
<defs>
<clipPath id="clip0_2174_31122">
<rect width="317" height="48" fill="white"/>
</clipPath>
</defs>
</svg>
