<svg width="137" height="112" viewBox="0 0 137 112" fill="none" xmlns="http://www.w3.org/2000/svg">
<g clip-path="url(#clip0_1776_14336)">
<path d="M74.7701 8.05639C74.2869 8.09252 78.0441 -1.86618 65.9509 0.301375C34.0084 6.05743 11.4288 27.2633 6.68088 33.3324C1.92092 39.4016 -12.6368 64.7258 25.8415 61.7635C64.3199 58.8012 85.5827 36.7885 88.5426 32.7424C100.08 16.8952 95.5617 6.3946 74.7701 8.05639V8.05639ZM66.8932 2.87835C66.8932 2.87835 74.4439 1.14431 71.3512 8.59828C71.3512 8.59828 52.5288 10.3805 26.2886 25.8785C26.2886 25.8785 39.9523 6.97262 66.8932 2.87835ZM56.878 51.6844C38.6355 58.464 21.299 57.1996 18.17 48.8304C15.041 40.4733 27.2913 28.1905 45.5459 21.3989C63.8005 14.6072 81.1248 15.8837 84.2538 24.2528C87.3828 32.6099 75.1326 44.8927 56.878 51.6844V51.6844Z" fill="#DA0043"/>
<path d="M94.8489 73.8413L102.931 28.1301H114.855L113.985 33.0071C116.003 30.9479 117.767 29.551 119.277 28.8285C121.307 27.8531 123.457 27.3594 125.716 27.3594C130.174 27.3594 133.315 29.0573 135.139 32.4411C136.976 35.8369 137.447 40.0275 136.565 45.0249C135.586 50.5401 133.521 54.7428 130.355 57.6449C127.19 60.547 123.578 62.0041 119.531 62.0041C117.561 62.0041 115.834 61.6669 114.336 61.0046C112.838 60.3423 111.557 59.3428 110.518 58.0182L107.715 73.8413H94.8489V73.8413ZM112.765 44.748C112.306 47.3611 112.511 49.2998 113.393 50.5642C114.275 51.8286 115.568 52.4668 117.259 52.4668C118.745 52.4668 120.086 51.8648 121.307 50.6485C122.527 49.4323 123.397 47.3731 123.904 44.471C124.375 41.7856 124.194 39.8228 123.384 38.5704C122.563 37.3181 121.403 36.6919 119.893 36.6919C118.262 36.6919 116.8 37.3301 115.483 38.5945C114.179 39.8589 113.261 41.9181 112.765 44.76V44.748Z" fill="#0058A2"/>
<path d="M44.8934 28.1182H57.1316L58.823 48.6617L69.1523 28.1182H80.5086L83.8309 48.8303L92.8193 28.1182H104.985L86.9962 61.0168H75.7365L72.5471 41.2198L62.5802 61.0168H51.2843L44.8693 28.1182H44.8934Z" fill="#0058A2"/>
<path d="M68.4155 79.7659H58.9559V81.7288H66.6637V83.8602H58.219V85.8592H62.834V86.9309H58.9922V88.9299H66.6999V91.2419H68.4517V86.9309H64.5857V85.8592H69.2007V83.8602H68.4155V79.7539V79.7659Z" fill="#0058A2"/>
<path d="M92.7468 79.7656H90.9951V80.7531H85.6794V79.7656H83.9276V86.1599H92.7468V79.7656V79.7656ZM90.9951 82.8845V84.0164H85.6794V82.8845H90.9951Z" fill="#0058A2"/>
<path d="M82.8282 86.7983V88.8816H87.4432V91.0973H89.195V88.8816H93.81V86.7983H82.8282V86.7983Z" fill="#0058A2"/>
<path d="M101.324 79.7656H99.5726V81.1143H97.3376V79.7656H95.5859V86.1117H101.324V79.7656ZM99.5726 83.041V84.173H97.3376V83.041H99.5726Z" fill="#0058A2"/>
<path d="M97.6759 90.7236H104.937V86.5933H95.9241V88.4598H103.185V88.8451H95.9241V92.9996H105.178V91.1331H97.6759V90.7236V90.7236Z" fill="#0058A2"/>
<path d="M104.937 79.7896H103.185V86.1236H104.937V83.8356H106.157V81.8367H104.937V79.7896Z" fill="#0058A2"/>
<path d="M109.866 86.9546H108.114V90.5672H117.815V88.5682H109.866V86.9546Z" fill="#0058A2"/>
<path d="M116.063 79.7656V81.8368H114.263V83.8358H116.063V86.1479H117.815V79.7656H116.063Z" fill="#0058A2"/>
<path d="M108.658 86.2442C108.658 86.2442 110.651 84.0887 110.808 83.9321C110.953 84.0887 112.971 86.2442 112.971 86.2442L114.191 84.5102C114.191 84.5102 111.75 82.0897 111.424 81.7646H113.72V79.7656H107.872V81.7646H110.18C109.866 82.0897 107.462 84.4861 107.462 84.4861L108.658 86.2322V86.2442Z" fill="#0058A2"/>
<path d="M52.13 83.3662C52.13 82.6196 51.8522 81.9693 51.2964 81.4154C50.7407 80.8614 50.0883 80.5845 49.3393 80.5845C48.5299 80.5845 47.8533 80.8614 47.2976 81.4154C46.7419 81.9452 46.464 82.5955 46.464 83.3662C46.464 84.1369 46.7419 84.763 47.2976 85.317C47.8533 85.895 48.5299 86.184 49.3393 86.184C50.0883 86.184 50.7407 85.895 51.2964 85.317C51.8522 84.763 52.13 84.1128 52.13 83.3662ZM50.0762 84.1248C49.8588 84.3416 49.6172 84.462 49.3272 84.462C49.0131 84.462 48.7594 84.3536 48.5419 84.1248C48.3245 83.9081 48.2158 83.6672 48.2158 83.3782C48.2158 83.0892 48.3245 82.8243 48.5419 82.6316C48.7594 82.4149 49.0131 82.3065 49.3272 82.3065C49.6172 82.3065 49.8709 82.4149 50.0762 82.6316C50.2937 82.8484 50.4024 83.0892 50.4024 83.3782C50.4024 83.6672 50.2937 83.9201 50.0762 84.1248Z" fill="#0058A2"/>
<path d="M48.3245 86.9429H46.5728V90.5555H56.0081V88.5565H48.3245V86.9429Z" fill="#0058A2"/>
<path d="M55.7061 81.825V79.7778H53.9543V86.136H55.7061V83.8239H56.9263V81.825H55.7061Z" fill="#0058A2"/>
<path d="M52.2992 79.7658H50.1367V78.3569H48.3849V79.7658H46.2103V81.8611H52.3113V79.7658H52.2992Z" fill="#0058A2"/>
<path d="M79.1314 79.7778V81.825H77.3313V83.8239H79.1314V90.5674H80.8831V79.7778H79.1314Z" fill="#0058A2"/>
<path d="M73.5499 79.7656L70.5297 85.8348L72.1848 86.9547L73.9124 83.4986L75.6641 86.9547L77.3313 85.8348L74.3111 79.7656H73.5499Z" fill="#0058A2"/>
</g>
<path d="M51.2942 104.641H50.3345C50.3884 104.175 50.4208 103.699 50.4208 103.19H46.5607V104.327H49.0083C48.825 106.275 47.9624 107.714 46 108.916L46.8087 109.911C48.6633 108.807 49.6552 107.422 50.0973 105.777H51.2942V107.13H49.914V108.277H51.2942V111.545H52.6204V102.227H51.2942V104.641ZM53.3321 102V111.978H54.6799V102H53.3321Z" fill="#0058A2"/>
<path d="M57.3315 107.66C58.4744 107.314 59.2615 106.589 59.6928 105.68C60.1349 106.502 60.8897 107.152 61.9895 107.465L62.658 106.361C61.1916 105.939 60.4907 104.955 60.4045 103.959H62.3669V102.801H56.9972V103.959H58.9381C58.8626 105.052 58.1402 106.102 56.6414 106.545L57.3315 107.66ZM60.3937 107.216H58.9596V108.916C58.1078 108.926 57.2991 108.926 56.5983 108.926L56.76 110.084C58.4313 110.095 60.6309 110.106 62.7227 109.706L62.6041 108.677C61.9032 108.764 61.1485 108.829 60.3937 108.872V107.216ZM65.8496 105.95H64.5449V102H63.1217V111.978H64.5449V107.13H65.8496V105.95Z" fill="#0058A2"/>
<path d="M75.2403 104.749H69.7844V103.418H75.1863V102.281H68.3719V105.874H75.2403V104.749ZM71.736 110.896C70.4097 110.896 69.7304 110.669 69.7304 110.149C69.7304 109.63 70.4097 109.392 71.736 109.392C73.0622 109.392 73.7415 109.63 73.7415 110.149C73.7415 110.669 73.0622 110.896 71.736 110.896ZM71.736 108.31C69.5903 108.31 68.2964 108.97 68.2964 110.149C68.2964 111.318 69.5903 111.978 71.736 111.978C73.8817 111.978 75.1863 111.318 75.1863 110.149C75.1863 108.97 73.8817 108.31 71.736 108.31ZM67.2828 106.567V107.736H76.2646V106.567H67.2828Z" fill="#0058A2"/>
<path d="M78.83 110.171H84.3721V111.946H85.7954V109.045H78.83V110.171ZM83.0459 107.346V106.632H85.9356V105.55H80.3611V104.9H85.7307V102.206H78.9378V103.288H84.329V103.894H78.9594V106.632H81.6226V107.346H77.838V108.483H86.8305V107.346H83.0459Z" fill="#0058A2"/>
<path d="M92.2532 102.779H90.83V104.229C90.83 106.167 90.0105 108.093 88.2745 108.84L89.1263 110.019C90.3124 109.457 91.1211 108.385 91.5632 107.054C92.0053 108.277 92.7708 109.262 93.9137 109.781L94.7224 108.623C93.0404 107.898 92.2532 106.08 92.2532 104.229V102.779ZM95.2076 102V112H96.6309V102H95.2076Z" fill="#0058A2"/>
<path d="M107.65 106.697C105.407 106.318 104.178 104.771 104.178 103.31V102.595H102.657V103.31C102.657 104.738 101.417 106.318 99.1855 106.697L99.7893 107.898C101.515 107.563 102.776 106.589 103.412 105.323C104.048 106.589 105.321 107.552 107.046 107.898L107.65 106.697ZM98.9699 109.608V110.766H107.962V109.608H98.9699Z" fill="#0058A2"/>
<path d="M114.701 107.887H116.027V102.162H114.701V104.403H113.73V105.55H114.701V107.887ZM114.011 106.232C113.116 106.394 112.339 106.448 111.293 106.459V105.604H113.31V104.522H111.293V103.732H113.655V102.606H109.924V107.584H110.603C112.07 107.584 113.008 107.563 114.129 107.357L114.011 106.232ZM112.673 109.468H116.609V110.745H112.673V109.468ZM111.272 111.859H118V108.353H111.272V111.859ZM116.652 102.022V107.963H118V102.022H116.652Z" fill="#0058A2"/>
<line x1="46" y1="97.75" x2="118" y2="97.75" stroke="#0058A2" stroke-width="0.5"/>
<defs>
<clipPath id="clip0_1776_14336">
<rect width="137" height="93" fill="white"/>
</clipPath>
</defs>
</svg>
