<svg width="200" height="84" viewBox="0 0 200 84" fill="none" xmlns="http://www.w3.org/2000/svg">
<path d="M48.446 5.23972C48.14 5.26158 50.5663 -1.20864 42.7336 0.204898C22.0332 3.93548 7.40965 17.7211 4.32755 21.6703C1.24546 25.6122 -8.19028 42.0792 16.7434 40.1556C41.677 38.232 55.4554 23.9218 57.3644 21.2914C64.8401 10.9886 61.9111 4.16135 48.446 5.24701V5.23972ZM43.3456 1.87346C43.3456 1.87346 48.242 0.75137 46.231 5.59675C46.231 5.59675 34.0337 6.75527 17.0275 16.8249C17.0275 16.8249 25.8804 4.53295 43.3383 1.87346H43.3456ZM36.8535 33.5979C25.0279 38.0061 13.7997 37.1828 11.7741 31.7399C9.74855 26.3044 17.6833 18.3259 29.509 13.9104C41.3346 9.49491 52.5628 10.3255 54.5883 15.7611C56.6212 21.1967 48.6792 29.1824 36.8535 33.5906V33.5979Z" fill="#DA0043"/>
<path d="M61.459 48.0033L66.6978 18.2899H74.4286L73.8675 21.4594C75.1718 20.126 76.3157 19.2152 77.2921 18.7416C78.6109 18.1077 80.0026 17.7871 81.4598 17.7871C84.3452 17.7871 86.3781 18.8873 87.5657 21.0878C88.7534 23.2955 89.0667 26.0206 88.4911 29.263C87.8572 32.8479 86.5165 35.5802 84.4618 37.4674C82.4071 39.3545 80.0754 40.2944 77.4451 40.2944C76.17 40.2944 75.0479 40.0759 74.0788 39.6387C73.1098 39.2015 72.2791 38.5603 71.6088 37.7005L69.7945 47.9888H61.459V48.0033ZM73.0733 29.0881C72.7746 30.7858 72.913 32.0464 73.4814 32.8697C74.0497 33.6931 74.8876 34.1011 75.9878 34.1011C76.9496 34.1011 77.824 33.7076 78.6109 32.9207C79.4051 32.1338 79.9589 30.7931 80.294 28.8987C80.6001 27.1573 80.4835 25.8822 79.9516 25.0588C79.4197 24.2428 78.6619 23.8347 77.6928 23.8347C76.6363 23.8347 75.6818 24.25 74.8366 25.0734C73.9841 25.8967 73.4012 27.2301 73.0733 29.0808V29.0881Z" fill="#0058A2"/>
<path d="M29.0859 18.2754H37.0207L38.1136 31.6311L44.8097 18.2754H52.1689L54.3256 31.7404L60.1474 18.2754H68.0311L56.3804 39.6606H49.0868L47.0248 26.7931L40.5691 39.6606H33.2464L29.0859 18.2754Z" fill="#0058A2"/>
<path d="M131.295 25.2754H118.196V28.007H128.87V30.9745H117.176V33.75H123.566V35.2365H118.24V38.012H128.914V41.2318H131.338V35.2419H125.99V33.7555H132.381V30.98H131.295V25.2809V25.2754Z" fill="#0058A2"/>
<path d="M164.989 25.2754H162.565V26.6522H155.204V25.2754H152.779V34.1614H164.989V25.2754ZM162.565 29.6087V31.1774H155.204V29.6087H162.565Z" fill="#0058A2"/>
<path d="M151.26 35.0391V37.9352H157.65V41.0179H160.08V37.9352H166.47V35.0391H151.26Z" fill="#0058A2"/>
<path d="M176.865 25.2754H174.435V27.1403H171.341V25.2754H168.917V34.0901H176.865V25.2754ZM174.435 29.8281V31.4023H171.341V29.8281H174.435Z" fill="#0058A2"/>
<path d="M171.819 40.4859H181.862V34.7539H169.389V37.3539H179.438V37.8859H169.389V43.6618H182.202V41.0619H171.813V40.4859H171.819Z" fill="#0058A2"/>
<path d="M181.862 25.3027H179.438V34.0955H181.862V30.9195H183.551V28.1441H181.862V25.3027Z" fill="#0058A2"/>
<path d="M188.692 35.2529H186.262V40.2719H199.695V37.4964H188.692V35.2529Z" fill="#0058A2"/>
<path d="M197.265 25.2754V28.1441H194.78V30.9196H197.265V34.1394H199.695V25.2754H197.265Z" fill="#0058A2"/>
<path d="M187.007 34.266C187.007 34.266 189.777 31.2656 189.975 31.0516C190.178 31.2711 192.964 34.266 192.964 34.266L194.648 31.8635C194.648 31.8635 191.264 28.501 190.82 28.0567H194.006V25.2812H185.916V28.0567H189.103C188.664 28.501 185.34 31.8415 185.34 31.8415L187.002 34.2714L187.007 34.266Z" fill="#0058A2"/>
<path d="M108.762 30.2727C108.762 29.236 108.378 28.3309 107.61 27.563C106.842 26.7951 105.942 26.4111 104.9 26.4111C103.786 26.4111 102.843 26.7951 102.081 27.563C101.313 28.2925 100.929 29.1921 100.929 30.2727C100.929 31.3533 101.313 32.2144 102.081 32.9824C102.849 33.7887 103.786 34.1946 104.9 34.1946C105.937 34.1946 106.836 33.7942 107.61 32.9824C108.378 32.2144 108.762 31.3094 108.762 30.2727ZM105.909 31.3368C105.613 31.644 105.267 31.8031 104.867 31.8031C104.439 31.8031 104.077 31.6495 103.781 31.3368C103.485 31.0406 103.337 30.6951 103.337 30.2946C103.337 29.8942 103.485 29.5322 103.781 29.2525C104.077 28.9563 104.439 28.8082 104.867 28.8082C105.267 28.8082 105.613 28.9563 105.909 29.2525C106.205 29.5487 106.354 29.8942 106.354 30.2946C106.354 30.6951 106.205 31.0406 105.909 31.3368Z" fill="#0058A2"/>
<path d="M103.484 35.2314H101.06V40.2504H114.12V37.4749H103.489V35.2314H103.484Z" fill="#0058A2"/>
<path d="M113.703 28.1275V25.2861H111.278V34.1173H113.703V30.8975H115.387V28.122H113.703V28.1275Z" fill="#0058A2"/>
<path d="M108.986 25.2701H105.991V23.3174H103.567V25.2701H100.55V28.1772H108.991V25.2701H108.986Z" fill="#0058A2"/>
<path d="M146.131 25.292V28.1333H143.646V30.9088H146.131V40.2775H148.556V25.292H146.131Z" fill="#0058A2"/>
<path d="M138.408 25.2754L134.229 33.6951L136.516 35.2529L138.913 30.4589L141.332 35.2529L143.647 33.6951L139.461 25.2754H138.408Z" fill="#0058A2"/>
<path d="M14.706 63.3939H12.0404C12.1901 62.0909 12.28 60.7576 12.28 59.3333H1.55746V62.5152H8.35638C7.84721 67.9697 5.45112 72 0 75.3636L2.24634 78.1515C7.39794 75.0606 10.1535 71.1818 11.3815 66.5758H14.706V70.3636H10.8723V73.5758H14.706V82.7273H18.39V56.6364H14.706V63.3939ZM20.3668 56V83.9394H24.1107V56H20.3668Z" fill="#0058A2"/>
<path d="M31.4764 71.8485C34.6512 70.8788 36.8376 68.8485 38.0357 66.303C39.2637 68.6061 41.3603 70.4242 44.4153 71.303L46.2722 68.2121C42.1989 67.0303 40.2521 64.2727 40.0124 61.4848H45.4636V58.2424H30.5479V61.4848H35.9391C35.7294 64.5455 33.7227 67.4848 29.5595 68.7273L31.4764 71.8485ZM39.9825 70.6061H35.999V75.3636C33.6328 75.3939 31.3865 75.3939 29.4397 75.3939L29.8889 78.6364C34.5314 78.6667 40.6414 78.697 46.452 77.5758L46.1225 74.697C44.1757 74.9394 42.0791 75.1212 39.9825 75.2424V70.6061ZM55.1378 67.0606H51.5137V56H47.5601V83.9394H51.5137V70.3636H55.1378V67.0606Z" fill="#0058A2"/>
<path d="M81.2229 63.697H66.0676V59.9697H81.0732V56.7879H62.144V66.8485H81.2229V63.697ZM71.4888 80.9091C67.8048 80.9091 65.9179 80.2727 65.9179 78.8182C65.9179 77.3636 67.8048 76.697 71.4888 76.697C75.1728 76.697 77.0597 77.3636 77.0597 78.8182C77.0597 80.2727 75.1728 80.9091 71.4888 80.9091ZM71.4888 73.6667C65.5285 73.6667 61.9344 75.5152 61.9344 78.8182C61.9344 82.0909 65.5285 83.9394 71.4888 83.9394C77.4491 83.9394 81.0732 82.0909 81.0732 78.8182C81.0732 75.5152 77.4491 73.6667 71.4888 73.6667ZM59.119 68.7879V72.0606H84.0683V68.7879H59.119Z" fill="#0058A2"/>
<path d="M91.1944 78.8788H106.589V83.8485H110.543V75.7273H91.1944V78.8788ZM102.905 70.9697V68.9697H110.932V65.9394H95.4474V64.1212H110.363V56.5758H91.4939V59.6061H106.469V61.303H91.5538V68.9697H98.9517V70.9697H88.4388V74.1515H113.418V70.9697H102.905Z" fill="#0058A2"/>
<path d="M128.481 58.1818H124.528V62.2424C124.528 67.6667 122.251 73.0606 117.429 75.1515L119.795 78.4545C123.09 76.8788 125.336 73.8788 126.564 70.1515C127.792 73.5758 129.919 76.3333 133.094 77.7879L135.34 74.5455C130.668 72.5152 128.481 67.4242 128.481 62.2424V58.1818ZM136.688 56V84H140.641V56H136.688Z" fill="#0058A2"/>
<path d="M171.249 69.1515C165.019 68.0909 161.605 63.7576 161.605 59.6667V57.6667H157.382V59.6667C157.382 63.6667 153.937 68.0909 147.738 69.1515L149.415 72.5152C154.207 71.5758 157.711 68.8485 159.478 65.303C161.245 68.8485 164.78 71.5455 169.572 72.5152L171.249 69.1515ZM147.138 77.303V80.5455H172.118V77.303H147.138Z" fill="#0058A2"/>
<path d="M190.835 72.4848H194.519V56.4545H190.835V62.7273H188.139V65.9394H190.835V72.4848ZM188.918 67.8485C186.432 68.303 184.276 68.4545 181.37 68.4848V66.0909H186.971V63.0606H181.37V60.8485H187.93V57.697H177.567V71.6364H179.453C183.527 71.6364 186.133 71.5758 189.248 71L188.918 67.8485ZM185.204 76.9091H196.136V80.4848H185.204V76.9091ZM181.31 83.6061H200V73.7879H181.31V83.6061ZM196.256 56.0606V72.697H200V56.0606H196.256Z" fill="#0058A2"/>
</svg>
