<svg width="366" height="66" viewBox="0 0 366 66" fill="none" xmlns="http://www.w3.org/2000/svg">
<g clip-path="url(#clip0_616_5619)">
<path d="M66.4907 7.19012C66.0707 7.22012 69.4007 -1.65988 58.6507 0.28012C30.2407 5.40012 10.1707 24.3201 5.94065 29.7401C1.71065 35.1501 -11.2393 57.7501 22.9807 55.1101C57.2007 52.4701 76.1107 32.8301 78.7307 29.2201C88.9907 15.0801 84.9707 5.71012 66.4907 7.20012V7.19012ZM59.4907 2.57012C59.4907 2.57012 66.2107 1.03012 63.4507 7.68012C63.4507 7.68012 46.7107 9.27012 23.3707 23.0901C23.3707 23.0901 35.5207 6.22012 59.4807 2.57012H59.4907ZM50.5807 46.1101C34.3507 52.1601 18.9407 51.0301 16.1607 43.5601C13.3807 36.1001 24.2707 25.1501 40.5007 19.0901C56.7307 13.0301 72.1407 14.1701 74.9207 21.6301C77.7107 29.0901 66.8107 40.0501 50.5807 46.1001V46.1101Z" fill="#DA0043"/>
<path d="M84.3496 65.8802L91.5396 25.1002H102.15L101.38 29.4502C103.17 27.6202 104.74 26.3702 106.08 25.7202C107.89 24.8502 109.8 24.4102 111.8 24.4102C115.76 24.4102 118.55 25.9202 120.18 28.9402C121.81 31.9702 122.24 35.7102 121.45 40.1602C120.58 45.0802 118.74 48.8302 115.92 51.4202C113.1 54.0102 109.9 55.3002 106.29 55.3002C104.54 55.3002 103 55.0002 101.67 54.4002C100.34 53.8002 99.1996 52.9202 98.2796 51.7402L95.7896 65.8602H84.3496V65.8802ZM100.29 39.9202C99.8796 42.2502 100.07 43.9802 100.85 45.1102C101.63 46.2402 102.78 46.8002 104.29 46.8002C105.61 46.8002 106.81 46.2602 107.89 45.1802C108.98 44.1002 109.74 42.2602 110.2 39.6602C110.62 37.2702 110.46 35.5202 109.73 34.3902C109 33.2702 107.96 32.7102 106.63 32.7102C105.18 32.7102 103.87 33.2802 102.71 34.4102C101.54 35.5402 100.74 37.3702 100.29 39.9102V39.9202Z" fill="#0058A2"/>
<path d="M39.9199 25.0801H50.8099L52.3099 43.4101L61.4999 25.0801H71.5999L74.5599 43.5601L82.5499 25.0801H93.3699L77.3799 54.4301H67.3699L64.5399 36.7701L55.6799 54.4301H45.6299L39.9199 25.0801Z" fill="#0058A2"/>
<path d="M194.98 27.9805H171.1V32.9605H190.56V38.3705H169.24V43.4305H180.89V46.1405H171.18V51.2005H190.64V57.0705H195.06V46.1505H185.31V43.4405H196.96V38.3805H194.98V27.9905V27.9805Z" fill="#0058A2"/>
<path d="M256.408 27.9805H251.988V30.4905H238.568V27.9805H234.148V44.1805H256.408V27.9805ZM251.988 35.8805V38.7405H238.568V35.8805H251.988Z" fill="#0058A2"/>
<path d="M231.379 45.7803V51.0603H243.029V56.6803H247.459V51.0603H259.109V45.7803H231.379Z" fill="#0058A2"/>
<path d="M278.06 27.9805H273.63V31.3805H267.99V27.9805H263.57V44.0505H278.06V27.9805ZM273.63 36.2805V39.1505H267.99V36.2805H273.63Z" fill="#0058A2"/>
<path d="M268.86 55.7107H287.17V45.2607H264.43V50.0007H282.75V50.9707H264.43V61.5007H287.79V56.7607H268.85V55.7107H268.86Z" fill="#0058A2"/>
<path d="M287.17 28.0303H282.75V44.0603H287.17V38.2703H290.25V33.2103H287.17V28.0303Z" fill="#0058A2"/>
<path d="M299.619 46.1709H295.189V55.3209H319.679V50.2609H299.619V46.1709Z" fill="#0058A2"/>
<path d="M315.251 27.9805V33.2105H310.721V38.2705H315.251V44.1405H319.681V27.9805H315.251Z" fill="#0058A2"/>
<path d="M296.55 44.3702C296.55 44.3702 301.6 38.9002 301.96 38.5102C302.33 38.9102 307.41 44.3702 307.41 44.3702L310.48 39.9902C310.48 39.9902 304.31 33.8602 303.5 33.0502H309.31V27.9902H294.56V33.0502H300.37C299.57 33.8602 293.51 39.9502 293.51 39.9502L296.54 44.3802L296.55 44.3702Z" fill="#0058A2"/>
<path d="M341.999 44.3702C341.999 44.3702 347.049 38.9002 347.409 38.5102C347.779 38.9102 352.859 44.3702 352.859 44.3702L355.929 39.9902C355.929 39.9902 349.759 33.8602 348.949 33.0502H354.759V27.9902H340.019V33.0502H345.829C345.029 33.8602 338.969 39.9502 338.969 39.9502L341.999 44.3802V44.3702Z" fill="#0058A2"/>
<path d="M332.219 28.2002H329.549V56.3502H332.219V28.2002Z" fill="#0058A2"/>
<path d="M335.709 50.7898H345.769V56.4098H349.129V50.7898H359.199V46.0498H335.709V50.7898Z" fill="#0058A2"/>
<path d="M365.36 28.2002H362.68V56.3502H365.36V28.2002Z" fill="#0058A2"/>
<path d="M153.899 37.0898C153.899 35.1998 153.199 33.5498 151.799 32.1498C150.399 30.7498 148.759 30.0498 146.859 30.0498C144.829 30.0498 143.109 30.7498 141.719 32.1498C140.319 33.4798 139.619 35.1198 139.619 37.0898C139.619 39.0598 140.319 40.6298 141.719 42.0298C143.119 43.4998 144.829 44.2398 146.859 44.2398C148.749 44.2398 150.389 43.5098 151.799 42.0298C153.199 40.6298 153.899 38.9798 153.899 37.0898ZM148.699 39.0298C148.159 39.5898 147.529 39.8798 146.799 39.8798C146.019 39.8798 145.359 39.5998 144.819 39.0298C144.279 38.4898 144.009 37.8598 144.009 37.1298C144.009 36.3998 144.279 35.7398 144.819 35.2298C145.359 34.6898 146.019 34.4198 146.799 34.4198C147.529 34.4198 148.159 34.6898 148.699 35.2298C149.239 35.7698 149.509 36.3998 149.509 37.1298C149.509 37.8598 149.239 38.4898 148.699 39.0298Z" fill="#0058A2"/>
<path d="M144.279 46.1299H139.859V55.2799H163.669V50.2199H144.289V46.1299H144.279Z" fill="#0058A2"/>
<path d="M162.91 33.18V28H158.49V44.1H162.91V38.23H165.98V33.17H162.91V33.18Z" fill="#0058A2"/>
<path d="M154.31 27.9702H148.85V24.4102H144.43V27.9702H138.93V33.2702H154.32V27.9702H154.31Z" fill="#0058A2"/>
<path d="M222.03 28.0107V33.1907H217.5V38.2507H222.03V55.3307H226.45V28.0107H222.03Z" fill="#0058A2"/>
<path d="M207.95 27.9805L200.33 43.3305L204.5 46.1705L208.87 37.4305L213.28 46.1705L217.5 43.3305L209.87 27.9805H207.95Z" fill="#0058A2"/>
</g>
<defs>
<clipPath id="clip0_616_5619">
<rect width="365.35" height="65.88" fill="white"/>
</clipPath>
</defs>
</svg>
