<svg width="317" height="48" viewBox="0 0 317 48" fill="none" xmlns="http://www.w3.org/2000/svg">
<g clip-path="url(#clip0_1865_19909)">
<path d="M48.4464 5.23972C48.1403 5.26158 50.5667 -1.20864 42.7339 0.204898C22.0336 3.93548 7.41002 17.7211 4.32792 21.6703C1.24582 25.6122 -8.18992 42.0792 16.7437 40.1556C41.6774 38.232 55.4558 23.9218 57.3648 21.2914C64.8405 10.9886 61.9114 4.16135 48.4464 5.24701V5.23972ZM43.346 1.87346C43.346 1.87346 48.2424 0.75137 46.2313 5.59675C46.2313 5.59675 34.0341 6.75527 17.0279 16.8249C17.0279 16.8249 25.8807 4.53295 43.3387 1.87346H43.346ZM36.8539 33.5979C25.0283 38.0061 13.8001 37.1828 11.7745 31.7399C9.74891 26.3044 17.6837 18.3259 29.5093 13.9104C41.335 9.49491 52.5631 10.3255 54.5887 15.7611C56.6216 21.1967 48.6795 29.1824 36.8539 33.5906V33.5979Z" fill="#0058A2"/>
<path d="M61.4597 48.0028L66.6985 18.2894H74.4292L73.8682 21.4589C75.1724 20.1255 76.3164 19.2147 77.2928 18.7411C78.6116 18.1072 80.0033 17.7866 81.4605 17.7866C84.3459 17.7866 86.3787 18.8869 87.5664 21.0873C88.7541 23.2951 89.0674 26.0201 88.4918 29.2625C87.8579 32.8474 86.5172 35.5797 84.4625 37.4669C82.4077 39.354 80.0761 40.294 77.4458 40.294C76.1707 40.294 75.0486 40.0754 74.0795 39.6382C73.1104 39.201 72.2798 38.5598 71.6094 37.7L69.7952 47.9883H61.4597V48.0028ZM73.074 29.0876C72.7753 30.7854 72.9137 32.0459 73.482 32.8692C74.0504 33.6926 74.8883 34.1006 75.9885 34.1006C76.9503 34.1006 77.8246 33.7072 78.6116 32.9202C79.4058 32.1333 79.9595 30.7926 80.2947 28.8982C80.6007 27.1568 80.4841 25.8817 79.9522 25.0583C79.4203 24.2423 78.6626 23.8342 77.6935 23.8342C76.637 23.8342 75.6825 24.2496 74.8373 25.0729C73.9848 25.8963 73.4019 27.2296 73.074 29.0804V29.0876Z" fill="#0058A2"/>
<path d="M29.0867 18.2749H37.0215L38.1144 31.6307L44.8105 18.2749H52.1697L54.3264 31.74L60.1482 18.2749H68.0319L56.3811 39.6601H49.0876L47.0256 26.7926L40.5699 39.6601H33.2472L29.0867 18.2749Z" fill="#0058A2"/>
<path d="M131.295 25.2751H118.196V28.0068H128.87V30.9742H117.176V33.7497H123.566V35.2362H118.24V38.0117H128.914V41.2315H131.339V35.2417H125.991V33.7552H132.381V30.9797H131.295V25.2806V25.2751Z" fill="#0058A2"/>
<path d="M164.99 25.2751H162.566V26.6519H155.205V25.2751H152.78V34.1611H164.99V25.2751ZM162.566 29.6084V31.1772H155.205V29.6084H162.566Z" fill="#0058A2"/>
<path d="M151.261 35.0388V37.935H157.651V41.0177H160.081V37.935H166.471V35.0388H151.261Z" fill="#0058A2"/>
<path d="M176.866 25.2751H174.436V27.1401H171.342V25.2751H168.918V34.0898H176.866V25.2751ZM174.436 29.8278V31.4021H171.342V29.8278H174.436Z" fill="#0058A2"/>
<path d="M171.819 40.4854H181.863V34.7534H169.389V37.3534H179.438V37.8855H169.389V43.6613H182.203V41.0614H171.814V40.4854H171.819Z" fill="#0058A2"/>
<path d="M181.863 25.3025H179.438V34.0952H181.863V30.9193H183.552V28.1438H181.863V25.3025Z" fill="#0058A2"/>
<path d="M188.692 35.2527H186.262V40.2716H199.695V37.4961H188.692V35.2527Z" fill="#0058A2"/>
<path d="M197.265 25.2751V28.1439H194.78V30.9194H197.265V34.1392H199.695V25.2751H197.265Z" fill="#0058A2"/>
<path d="M187.008 34.2655C187.008 34.2655 189.778 31.2651 189.975 31.0512C190.178 31.2706 192.965 34.2655 192.965 34.2655L194.649 31.863C194.649 31.863 191.264 28.5006 190.82 28.0563H194.007V25.2808H185.916V28.0563H189.103C188.664 28.5006 185.34 31.841 185.34 31.841L187.002 34.271L187.008 34.2655Z" fill="#0058A2"/>
<path d="M108.762 30.272C108.762 29.2353 108.378 28.3302 107.61 27.5623C106.842 26.7944 105.942 26.4104 104.9 26.4104C103.787 26.4104 102.843 26.7944 102.081 27.5623C101.313 28.2918 100.929 29.1914 100.929 30.272C100.929 31.3525 101.313 32.2137 102.081 32.9816C102.849 33.788 103.787 34.1939 104.9 34.1939C105.937 34.1939 106.837 33.7934 107.61 32.9816C108.378 32.2137 108.762 31.3087 108.762 30.272ZM105.91 31.3361C105.613 31.6433 105.268 31.8023 104.867 31.8023C104.44 31.8023 104.078 31.6487 103.781 31.3361C103.485 31.0399 103.337 30.6943 103.337 30.2939C103.337 29.8935 103.485 29.5315 103.781 29.2517C104.078 28.9555 104.44 28.8074 104.867 28.8074C105.268 28.8074 105.613 28.9555 105.91 29.2517C106.206 29.5479 106.354 29.8935 106.354 30.2939C106.354 30.6943 106.206 31.0399 105.91 31.3361Z" fill="#0058A2"/>
<path d="M103.485 35.2307H101.061V40.2496H114.121V37.4741H103.491V35.2307H103.485Z" fill="#0058A2"/>
<path d="M113.704 28.1275V25.2861H111.279V34.1173H113.704V30.8975H115.388V28.122H113.704V28.1275Z" fill="#0058A2"/>
<path d="M108.987 25.2696H105.992V23.3169H103.567V25.2696H100.551V28.1768H108.992V25.2696H108.987Z" fill="#0058A2"/>
<path d="M146.132 25.2915V28.1328H143.648V30.9083H146.132V40.277H148.557V25.2915H146.132Z" fill="#0058A2"/>
<path d="M138.409 25.2751L134.229 33.6949L136.517 35.2527L138.914 30.4586L141.333 35.2527L143.648 33.6949L139.462 25.2751H138.409Z" fill="#0058A2"/>
<line x1="207.001" y1="25.3601" x2="207.001" y2="40.7571" stroke="#0058A2"/>
<path d="M220.034 29.8534H218.73C218.803 29.2212 218.847 28.5742 218.847 27.8832H213.603V29.427H216.928C216.679 32.0736 215.507 34.0291 212.841 35.6611L213.94 37.0138C216.46 35.5141 217.807 33.6321 218.408 31.3972H220.034V33.2351H218.159V34.7936H220.034V39.234H221.836V26.5746H220.034V29.8534ZM222.802 26.2659V39.8221H224.633V26.2659H222.802Z" fill="#0058A2"/>
<path d="M228.236 33.9556C229.789 33.4851 230.858 32.5 231.444 31.2649C232.045 32.3823 233.07 33.2645 234.564 33.6909L235.472 32.1912C233.48 31.6178 232.528 30.2798 232.411 28.9271H235.077V27.3539H227.782V28.9271H230.419C230.316 30.4121 229.335 31.8383 227.298 32.4412L228.236 33.9556ZM232.396 33.3527H230.448V35.6611C229.291 35.6758 228.192 35.6758 227.24 35.6758L227.46 37.2491C229.73 37.2638 232.718 37.2785 235.56 36.7344L235.399 35.3377C234.447 35.4553 233.422 35.5435 232.396 35.6023V33.3527ZM239.808 31.6325H238.036V26.2659H236.102V39.8221H238.036V33.2351H239.808V31.6325Z" fill="#0058A2"/>
<path d="M252.566 30.0004H245.154V28.192H252.493V26.6481H243.235V31.5296H252.566V30.0004ZM247.805 38.3518C246.004 38.3518 245.081 38.043 245.081 37.3373C245.081 36.6315 246.004 36.3081 247.805 36.3081C249.607 36.3081 250.53 36.6315 250.53 37.3373C250.53 38.043 249.607 38.3518 247.805 38.3518ZM247.805 34.8378C244.89 34.8378 243.132 35.7346 243.132 37.3373C243.132 38.9252 244.89 39.8221 247.805 39.8221C250.72 39.8221 252.493 38.9252 252.493 37.3373C252.493 35.7346 250.72 34.8378 247.805 34.8378ZM241.755 32.4706V34.0585H253.958V32.4706H241.755Z" fill="#0058A2"/>
<path d="M257.443 37.3667H264.972V39.778H266.906V35.8376H257.443V37.3667ZM263.171 33.5292V32.5588H267.096V31.0885H259.523V30.2063H266.818V26.5452H257.589V28.0155H264.914V28.8389H257.619V32.5588H261.237V33.5292H256.095V35.073H268.312V33.5292H263.171Z" fill="#0058A2"/>
<path d="M275.679 27.3245H273.746V29.2947C273.746 31.9265 272.632 34.5437 270.274 35.5582L271.431 37.1608C273.043 36.3963 274.141 34.9407 274.742 33.1322C275.342 34.7936 276.382 36.1316 277.935 36.8374L279.034 35.2641C276.749 34.279 275.679 31.8089 275.679 29.2947V27.3245ZM279.693 26.2659V39.8515H281.627V26.2659H279.693Z" fill="#0058A2"/>
<path d="M296.596 32.647C293.549 32.1324 291.88 30.0299 291.88 28.0449V27.0745H289.814V28.0449C289.814 29.9857 288.129 32.1324 285.097 32.647L285.918 34.279C288.261 33.8232 289.975 32.5 290.839 30.7797C291.704 32.5 293.432 33.8085 295.776 34.279L296.596 32.647ZM284.804 36.6021V38.1753H297.021V36.6021H284.804Z" fill="#0058A2"/>
<path d="M306.175 34.2643H307.977V26.4864H306.175V29.5299H304.857V31.0885H306.175V34.2643ZM305.238 32.0148C304.022 32.2353 302.967 32.3088 301.546 32.3235V31.162H304.286V29.6917H301.546V28.6184H304.754V27.0892H299.686V33.8526H300.609C302.601 33.8526 303.876 33.8232 305.399 33.5439L305.238 32.0148ZM303.421 36.411H308.768V38.1459H303.421V36.411ZM301.517 39.6604H310.658V34.8966H301.517V39.6604ZM308.827 26.2953V34.3673H310.658V26.2953H308.827Z" fill="#0058A2"/>
</g>
<defs>
<clipPath id="clip0_1865_19909">
<rect width="317" height="48" fill="white"/>
</clipPath>
</defs>
</svg>
