<svg width="32" height="32" viewBox="0 0 32 32" fill="none" xmlns="http://www.w3.org/2000/svg">
<path d="M22.8126 14.8129L20.3318 12.3955V8.84861C20.3318 8.56864 20.2206 8.30013 20.0226 8.10217C19.8247 7.9042 19.5562 7.79298 19.2762 7.79298H15.7821L13.3119 5.31225C13.2138 5.21331 13.097 5.13478 12.9684 5.08119C12.8397 5.02759 12.7018 5 12.5624 5C12.423 5 12.2851 5.02759 12.1564 5.08119C12.0278 5.13478 11.911 5.21331 11.8129 5.31225L9.39552 7.79298H5.84861C5.56864 7.79298 5.30013 7.9042 5.10217 8.10217C4.9042 8.30013 4.79298 8.56864 4.79298 8.84861V12.3955L2.31225 14.8129C2.21331 14.911 2.13478 15.0278 2.08119 15.1564C2.02759 15.2851 2 15.423 2 15.5624C2 15.7018 2.02759 15.8397 2.08119 15.9684C2.13478 16.097 2.21331 16.2138 2.31225 16.3119L4.79298 18.7821V22.2762C4.79298 22.5562 4.9042 22.8247 5.10217 23.0226C5.30013 23.2206 5.56864 23.3318 5.84861 23.3318H9.39552L11.8657 25.8126C11.9638 25.9115 12.0806 25.99 12.2092 26.0436C12.3379 26.0972 12.4758 26.1248 12.6152 26.1248C12.7545 26.1248 12.8925 26.0972 13.0212 26.0436C13.1498 25.99 13.2665 25.9115 13.3647 25.8126L15.8349 23.3318H19.329C19.6089 23.3318 19.8775 23.2206 20.0754 23.0226C20.2734 22.8247 20.3846 22.5562 20.3846 22.2762V18.7821L22.8653 16.3119C22.9609 16.2103 23.0354 16.0908 23.0845 15.9603C23.1336 15.8298 23.1564 15.6908 23.1515 15.5514C23.1466 15.412 23.1141 15.275 23.0559 15.1482C22.9977 15.0215 22.915 14.9075 22.8126 14.8129ZM18.5373 17.5998C18.4375 17.6975 18.3582 17.8141 18.3038 17.9428C18.2494 18.0714 18.2211 18.2096 18.2206 18.3493V21.2206H15.3493C15.2096 21.2212 15.0714 21.2494 14.9428 21.3038C14.8141 21.3582 14.6975 21.4375 14.5998 21.5373L12.5624 23.5746L10.525 21.5373C10.4273 21.4375 10.3107 21.3582 10.182 21.3038C10.0534 21.2494 9.91521 21.2212 9.77554 21.2206H6.90424V18.3493C6.90366 18.2096 6.87537 18.0714 6.821 17.9428C6.76664 17.8141 6.68729 17.6975 6.58755 17.5998L4.55018 15.5624L6.58755 13.525C6.68729 13.4273 6.76664 13.3107 6.821 13.182C6.87537 13.0534 6.90366 12.9152 6.90424 12.7755V9.90424H9.77554C9.91521 9.90366 10.0534 9.87537 10.182 9.821C10.3107 9.76664 10.4273 9.68729 10.525 9.58755L12.5624 7.55018L14.5998 9.58755C14.6975 9.68729 14.8141 9.76664 14.9428 9.821C15.0714 9.87537 15.2096 9.90366 15.3493 9.90424H18.2206V12.7755C18.2211 12.9152 18.2494 13.0534 18.3038 13.182C18.3582 13.3107 18.4375 13.4273 18.5373 13.525L20.5746 15.5624L18.5373 17.5998Z" fill="#2F80ED"/>
<path fill-rule="evenodd" clip-rule="evenodd" d="M25.5532 14.5623L22.1396 11.2145L23.54 9.78662L29.4222 15.5554L23.547 21.4307L22.1327 20.0165L25.5869 16.5623H12.5625V14.5623H25.5532Z" fill="#F2C94C"/>
</svg>
