<svg width="24" height="25" viewBox="0 0 24 25" fill="none" xmlns="http://www.w3.org/2000/svg">
<path d="M9 10.1982H10C10.2652 10.1982 10.5196 10.0929 10.7071 9.9054C10.8946 9.71793 11 9.46367 11 9.19855C11 8.93344 10.8946 8.67918 10.7071 8.49171C10.5196 8.30425 10.2652 8.19893 10 8.19893H9C8.73478 8.19893 8.48043 8.30425 8.29289 8.49171C8.10536 8.67918 8 8.93344 8 9.19855C8 9.46367 8.10536 9.71793 8.29289 9.9054C8.48043 10.0929 8.73478 10.1982 9 10.1982ZM9 12.1974C8.73478 12.1974 8.48043 12.3027 8.29289 12.4902C8.10536 12.6777 8 12.9319 8 13.1971C8 13.4622 8.10536 13.7164 8.29289 13.9039C8.48043 14.0914 8.73478 14.1967 9 14.1967H15C15.2652 14.1967 15.5196 14.0914 15.7071 13.9039C15.8946 13.7164 16 13.4622 16 13.1971C16 12.9319 15.8946 12.6777 15.7071 12.4902C15.5196 12.3027 15.2652 12.1974 15 12.1974H9ZM20 9.13858C19.9896 9.04674 19.9695 8.95627 19.94 8.86868V8.77871C19.8919 8.67593 19.8278 8.58145 19.75 8.49882L13.75 2.50106C13.6673 2.4233 13.5728 2.35919 13.47 2.31113C13.4402 2.30689 13.4099 2.30689 13.38 2.31113C13.2784 2.25289 13.1662 2.21551 13.05 2.20117H7C6.20435 2.20117 5.44129 2.51712 4.87868 3.07952C4.31607 3.64192 4 4.4047 4 5.20005V19.1948C4 19.9902 4.31607 20.7529 4.87868 21.3153C5.44129 21.8777 6.20435 22.1937 7 22.1937H17C17.7956 22.1937 18.5587 21.8777 19.1213 21.3153C19.6839 20.7529 20 19.9902 20 19.1948V9.19855C20 9.19855 20 9.19855 20 9.13858ZM14 5.6099L16.59 8.19893H15C14.7348 8.19893 14.4804 8.09361 14.2929 7.90614C14.1054 7.71868 14 7.46442 14 7.1993V5.6099ZM18 19.1948C18 19.4599 17.8946 19.7142 17.7071 19.9017C17.5196 20.0891 17.2652 20.1944 17 20.1944H7C6.73478 20.1944 6.48043 20.0891 6.29289 19.9017C6.10536 19.7142 6 19.4599 6 19.1948V5.20005C6 4.93493 6.10536 4.68067 6.29289 4.49321C6.48043 4.30574 6.73478 4.20042 7 4.20042H12V7.1993C12 7.99465 12.3161 8.75743 12.8787 9.31983C13.4413 9.88223 14.2044 10.1982 15 10.1982H18V19.1948ZM15 16.1959H9C8.73478 16.1959 8.48043 16.3013 8.29289 16.4887C8.10536 16.6762 8 16.9304 8 17.1956C8 17.4607 8.10536 17.7149 8.29289 17.9024C8.48043 18.0899 8.73478 18.1952 9 18.1952H15C15.2652 18.1952 15.5196 18.0899 15.7071 17.9024C15.8946 17.7149 16 17.4607 16 17.1956C16 16.9304 15.8946 16.6762 15.7071 16.4887C15.5196 16.3013 15.2652 16.1959 15 16.1959Z" fill="#425061"/>
</svg>
