<svg width="21" height="21" viewBox="0 0 21 21" fill="none" xmlns="http://www.w3.org/2000/svg">
<path fill-rule="evenodd" clip-rule="evenodd" d="M13.7929 4.79289C14.1834 4.40237 14.8166 4.40237 15.2071 4.79289L20.2071 9.79289C20.5976 10.1834 20.5976 10.8166 20.2071 11.2071L15.2071 16.2071C14.8166 16.5976 14.1834 16.5976 13.7929 16.2071C13.4024 15.8166 13.4024 15.1834 13.7929 14.7929L18.0858 10.5L13.7929 6.20711C13.4024 5.81658 13.4024 5.18342 13.7929 4.79289Z" fill="white"/>
<path fill-rule="evenodd" clip-rule="evenodd" d="M6.5 10.5C6.5 9.94772 6.94772 9.5 7.5 9.5H19.5C20.0523 9.5 20.5 9.94772 20.5 10.5C20.5 11.0523 20.0523 11.5 19.5 11.5H7.5C6.94772 11.5 6.5 11.0523 6.5 10.5Z" fill="white"/>
<path fill-rule="evenodd" clip-rule="evenodd" d="M3.5 2.5C3.23478 2.5 2.98043 2.60536 2.79289 2.79289C2.60536 2.98043 2.5 3.23478 2.5 3.5V17.5C2.5 17.7652 2.60536 18.0196 2.79289 18.2071C2.98043 18.3946 3.23478 18.5 3.5 18.5H7.5C8.05228 18.5 8.5 18.9477 8.5 19.5C8.5 20.0523 8.05228 20.5 7.5 20.5H3.5C2.70435 20.5 1.94129 20.1839 1.37868 19.6213C0.81607 19.0587 0.5 18.2957 0.5 17.5V3.5C0.5 2.70435 0.81607 1.94129 1.37868 1.37868C1.94129 0.81607 2.70435 0.5 3.5 0.5H7.5C8.05228 0.5 8.5 0.947715 8.5 1.5C8.5 2.05228 8.05228 2.5 7.5 2.5H3.5Z" fill="white"/>
</svg>
