<svg width="80" height="80" viewBox="0 0 80 80" fill="none" xmlns="http://www.w3.org/2000/svg">
<path d="M10 10H20V20H10V10Z" fill="black"/>
<path d="M30 0V30H0V0H30ZM25 5H5V25H25V5ZM20 60H10V70H20V60Z" fill="black"/>
<path d="M30 50V80H0V50H30ZM5 55V75H25V55H5ZM60 10H70V20H60V10Z" fill="black"/>
<path d="M50 0V30H80V0H50ZM75 5V25H55V5H75ZM40 5V0H45V10H40V20H35V5H40ZM40 30V20H45V30H40ZM30 40V35H35V30H40V40H45V35H70V40H50V45H35V40H30ZM30 40V45H10V40H5V45H0V35H15V40H30ZM80 45H75V35H80V45ZM75 45H70V55H80V50H75V45ZM55 45H65V50H60V55H55V45ZM65 60V55H60V60H55V65H45V70H60V60H65ZM65 60H80V65H70V70H65V60ZM45 55V60H50V50H35V55H45Z" fill="black"/>
<path d="M35 60H40V75H60V80H35V60ZM80 70V80H65V75H75V70H80Z" fill="black"/>
</svg>
