<svg width="24" height="24" viewBox="0 0 24 24" fill="none" xmlns="http://www.w3.org/2000/svg">
<path d="M17 12.0009V11.9109C16.9954 11.8149 16.9752 11.7203 16.94 11.6309C16.9133 11.5623 16.8762 11.4982 16.83 11.4409C16.8035 11.3952 16.7734 11.3518 16.74 11.3109L13.88 8.31086C13.7894 8.21565 13.6809 8.13922 13.5608 8.08594C13.4406 8.03265 13.3111 8.00356 13.1797 8.00031C12.9144 7.99374 12.6573 8.09286 12.465 8.27586C12.2727 8.45886 12.161 8.71075 12.1544 8.97611C12.1479 9.24148 12.247 9.49858 12.43 9.69086L13.66 11.0009H8C7.73478 11.0009 7.48043 11.1062 7.29289 11.2938C7.10536 11.4813 7 11.7356 7 12.0009C7 12.2661 7.10536 12.5204 7.29289 12.708C7.48043 12.8955 7.73478 13.0009 8 13.0009H13.59L12.29 14.2909C12.1963 14.3838 12.1219 14.4944 12.0711 14.6163C12.0203 14.7381 11.9942 14.8689 11.9942 15.0009C11.9942 15.1329 12.0203 15.2636 12.0711 15.3854C12.1219 15.5073 12.1963 15.6179 12.29 15.7109C12.383 15.8046 12.4936 15.879 12.6154 15.9298C12.7373 15.9805 12.868 16.0067 13 16.0067C13.132 16.0067 13.2627 15.9805 13.3846 15.9298C13.5064 15.879 13.617 15.8046 13.71 15.7109L16.71 12.7109C16.7999 12.6187 16.8713 12.5101 16.92 12.3909C16.9725 12.2675 16.9997 12.1349 17 12.0009Z" fill="white"/>
<path d="M12 2C10.0222 2 8.08879 2.58649 6.4443 3.6853C4.79981 4.78412 3.51809 6.3459 2.76121 8.17317C2.00433 10.0004 1.8063 12.0111 2.19215 13.9509C2.578 15.8907 3.53041 17.6725 4.92894 19.0711C6.32746 20.4696 8.10929 21.422 10.0491 21.8079C11.9889 22.1937 13.9996 21.9957 15.8268 21.2388C17.6541 20.4819 19.2159 19.2002 20.3147 17.5557C21.4135 15.9112 22 13.9778 22 12C22 10.6868 21.7413 9.38642 21.2388 8.17317C20.7363 6.95991 19.9997 5.85752 19.0711 4.92893C18.1425 4.00035 17.0401 3.26375 15.8268 2.7612C14.6136 2.25866 13.3132 2 12 2ZM12 20C10.4178 20 8.87104 19.5308 7.55544 18.6518C6.23985 17.7727 5.21447 16.5233 4.60897 15.0615C4.00347 13.5997 3.84504 11.9911 4.15372 10.4393C4.4624 8.88743 5.22433 7.46197 6.34315 6.34315C7.46197 5.22433 8.88743 4.4624 10.4393 4.15372C11.9911 3.84504 13.5997 4.00346 15.0615 4.60896C16.5233 5.21447 17.7727 6.23984 18.6518 7.55544C19.5308 8.87103 20 10.4177 20 12C20 14.1217 19.1572 16.1566 17.6569 17.6569C16.1566 19.1571 14.1217 20 12 20Z" fill="white"/>
</svg>
