<svg width="97" height="52" viewBox="0 0 97 52" fill="none" xmlns="http://www.w3.org/2000/svg">
<path d="M52.484 5.67317C52.1525 5.69685 54.781 -1.31253 46.2956 0.218799C23.8703 4.26024 8.02815 19.1946 4.68922 23.4729C1.3503 27.7432 -8.87172 45.5824 18.1397 43.4986C45.151 41.4147 60.0775 25.912 62.1456 23.0624C70.2443 11.9011 67.0711 4.50494 52.484 5.68106V5.67317ZM46.9586 2.0264C46.9586 2.0264 52.263 0.810807 50.0844 6.05995C50.0844 6.05995 36.8708 7.31501 18.4475 18.2237C18.4475 18.2237 28.038 4.90751 46.9507 2.0264H46.9586ZM39.9256 36.3945C27.1145 41.17 14.9507 40.278 12.7563 34.3816C10.5619 28.4931 19.1579 19.8498 31.969 15.0664C44.78 10.2829 56.9438 11.1828 59.1382 17.0713C61.3405 22.9598 52.7366 31.611 39.9256 36.3866V36.3945Z" fill="#0058A2"/>
<path d="M66.582 52.0002L72.2574 19.8108H80.6324L80.0246 23.2444C81.4375 21.7999 82.6768 20.8132 83.7345 20.3002C85.1632 19.6134 86.6709 19.2661 88.2495 19.2661C91.3753 19.2661 93.5776 20.458 94.8642 22.8418C96.1509 25.2336 96.4903 28.1857 95.8667 31.6983C95.18 35.5819 93.7276 38.5419 91.5016 40.5863C89.2757 42.6307 86.7498 43.649 83.9003 43.649C82.5189 43.649 81.3033 43.4122 80.2535 42.9386C79.2037 42.465 78.3038 41.7703 77.5776 40.8389L75.6121 51.9844H66.582V52.0002ZM79.1642 31.5088C78.8406 33.348 78.9905 34.7136 79.6062 35.6055C80.2219 36.4975 81.1297 36.9395 82.3216 36.9395C83.3635 36.9395 84.3107 36.5133 85.1632 35.6608C86.0236 34.8083 86.6235 33.3559 86.9866 31.3036C87.3181 29.4171 87.1918 28.0357 86.6156 27.1438C86.0394 26.2597 85.2185 25.8177 84.1686 25.8177C83.0241 25.8177 81.99 26.2676 81.0744 27.1596C80.1509 28.0515 79.5194 29.496 79.1642 31.501V31.5088Z" fill="#0058A2"/>
<path d="M31.5117 19.7944H40.1077L41.2917 34.2631L48.5458 19.7944H56.5182L58.8546 34.3815L65.1615 19.7944H73.7022L61.0806 42.9617H53.1792L50.9454 29.0219L43.9518 42.9617H36.0189L31.5117 19.7944Z" fill="#0058A2"/>
</svg>
