<svg width="343" height="185" viewBox="0 0 343 185" fill="none" xmlns="http://www.w3.org/2000/svg">
<path d="M186.722 20.1834C185.543 20.2676 194.894 -4.66958 164.705 0.778419C84.9232 15.1566 28.5617 68.2886 16.6828 83.5093C4.80394 98.7019 -31.5628 162.168 64.5353 154.755C160.633 147.341 213.737 92.1868 221.095 82.049C249.908 42.3404 238.618 16.0272 186.722 20.2115V20.1834ZM167.064 7.2093C167.064 7.2093 185.936 2.8846 178.185 21.5594C178.185 21.5594 131.175 26.0245 65.6305 64.8345C65.6305 64.8345 99.7507 17.4594 167.036 7.2093H167.064ZM142.043 129.48C96.4651 146.47 53.19 143.297 45.3831 122.319C37.5762 101.37 68.158 70.6195 113.736 53.6015C159.314 36.5835 202.589 39.7849 210.396 60.7345C218.231 81.684 187.621 112.462 142.043 129.452V129.48Z" fill="#F4F6F8"/>
<path d="M236.883 185L257.074 70.4802H286.87L284.707 82.696C289.734 77.5569 294.143 74.0466 297.906 72.2213C302.989 69.7781 308.353 68.5425 313.969 68.5425C325.09 68.5425 332.925 72.7829 337.502 81.2638C342.08 89.7728 343.287 100.276 341.069 112.772C338.626 126.589 333.458 137.12 325.539 144.393C317.62 151.667 308.633 155.289 298.496 155.289C293.581 155.289 289.257 154.447 285.522 152.762C281.787 151.077 278.585 148.606 276.002 145.292L269.009 184.944H236.883V185ZM281.646 112.098C280.495 118.642 281.028 123.5 283.219 126.673C285.409 129.846 288.639 131.419 292.879 131.419C296.586 131.419 299.956 129.903 302.989 126.87C306.05 123.837 308.184 118.67 309.476 111.368C310.655 104.657 310.206 99.7421 308.156 96.5688C306.106 93.4235 303.185 91.8509 299.451 91.8509C295.379 91.8509 291.7 93.4516 288.442 96.6249C285.157 99.7982 282.91 104.937 281.646 112.07V112.098Z" fill="#F4F6F8"/>
<path d="M112.109 70.4253H142.691L146.904 121.9L172.711 70.4253H201.075L209.387 122.322L231.825 70.4253H262.21L217.306 152.847H189.196L181.248 103.254L156.367 152.847H128.144L112.109 70.4253Z" fill="#F4F6F8"/>
</svg>
