<svg width="265" height="32" viewBox="0 0 265 32" fill="none" xmlns="http://www.w3.org/2000/svg">
<path d="M32.2966 3.49105C32.0926 3.50562 33.7101 -0.807679 28.4885 0.13464C14.6888 2.62159 4.94021 11.8116 2.88556 14.4443C0.830919 17.0721 -5.45931 28.0496 11.1624 26.7673C27.7842 25.485 36.9694 15.9452 38.242 14.1917C43.2256 7.32347 41.2729 2.77216 32.2966 3.4959V3.49105ZM28.8965 1.24697C28.8965 1.24697 32.1606 0.498939 30.82 3.72905C30.82 3.72905 22.6888 4.50137 11.3519 11.2142C11.3519 11.2142 17.2535 3.01989 28.8916 1.24697H28.8965ZM24.5686 22.3957C16.6852 25.3344 9.20008 24.7855 7.84974 21.1571C6.49941 17.5335 11.789 12.2148 19.6725 9.27125C27.5559 6.32772 35.041 6.88145 36.3913 10.505C37.7465 14.1286 32.4521 19.4522 24.5686 22.3909V22.3957Z" fill="white"/>
<path d="M40.9727 31.9988L44.4651 12.1906H49.6187L49.2447 14.3036C50.1141 13.4147 50.8767 12.8075 51.5276 12.4918C52.4068 12.0692 53.3345 11.8555 54.306 11.8555C56.2295 11.8555 57.5847 12.5889 58.3764 14.0558C59.1682 15.5276 59.377 17.3442 58.9933 19.5057C58.5707 21.8955 57.677 23.717 56.3072 24.9751C54.9374 26.2331 53.3831 26.8597 51.6296 26.8597C50.7796 26.8597 50.0316 26.714 49.3855 26.4226C48.7395 26.1311 48.1858 25.7037 47.7389 25.1305L46.5294 31.989H40.9727V31.9988ZM48.7152 19.3892C48.5161 20.5209 48.6084 21.3612 48.9872 21.9101C49.3661 22.459 49.9247 22.731 50.6581 22.731C51.2993 22.731 51.8822 22.4687 52.4068 21.9441C52.9362 21.4195 53.3054 20.5258 53.5288 19.2629C53.7328 18.102 53.6551 17.2519 53.3005 16.7031C52.9459 16.1591 52.4408 15.887 51.7948 15.887C51.0904 15.887 50.4541 16.1639 49.8907 16.7128C49.3224 17.2617 48.9338 18.1506 48.7152 19.3843V19.3892Z" fill="white"/>
<path d="M19.3906 12.1809H24.6802L25.4088 21.0844L29.8727 12.1809H34.7786L36.2164 21.1572L40.0974 12.1809H45.353L37.5861 26.4371H32.724L31.3493 17.8591L27.0458 26.4371H22.1642L19.3906 12.1809Z" fill="white"/>
<path d="M94.7098 13.5898H83.1105V16.0088H92.5628V18.6366H82.207V21.0944H87.8658V22.4107H83.1493V24.8685H92.6017V27.7198H94.7486V22.4156H90.0127V21.0993H95.6715V18.6415H94.7098V13.5947V13.5898Z" fill="white"/>
<path d="M124.543 13.5898H122.396V14.809H115.877V13.5898H113.73V21.4587H124.543V13.5898ZM122.396 17.4271V18.8163H115.877V17.4271H122.396Z" fill="white"/>
<path d="M112.387 22.2358V24.8005H118.045V27.5303H120.197V24.8005H125.856V22.2358H112.387Z" fill="white"/>
<path d="M135.062 13.5898H132.91V15.2413H130.17V13.5898H128.023V21.3956H135.062V13.5898ZM132.91 17.6214V19.0155H130.17V17.6214H132.91Z" fill="white"/>
<path d="M130.593 27.0593H139.487V21.9834H128.441V24.2858H137.34V24.7569H128.441V29.8717H139.788V27.5693H130.588V27.0593H130.593Z" fill="white"/>
<path d="M139.487 13.614H137.34V21.4003H139.487V18.5879H140.983V16.1301H139.487V13.614Z" fill="white"/>
<path d="M145.535 22.4253H143.383V26.8697H155.278V24.4119H145.535V22.4253Z" fill="white"/>
<path d="M153.126 13.5898V16.1302H150.926V18.588H153.126V21.4393H155.278V13.5898H153.126Z" fill="white"/>
<path d="M144.043 21.5508C144.043 21.5508 146.496 18.8938 146.671 18.7044C146.851 18.8987 149.318 21.5508 149.318 21.5508L150.809 19.4233C150.809 19.4233 147.812 16.4457 147.419 16.0523H150.241V13.5945H143.076V16.0523H145.899C145.51 16.4457 142.566 19.4038 142.566 19.4038L144.038 21.5556L144.043 21.5508Z" fill="white"/>
<path d="M74.7566 18.0145C74.7566 17.0965 74.4166 16.295 73.7365 15.615C73.0565 14.935 72.2599 14.595 71.337 14.595C70.351 14.595 69.5155 14.935 68.8404 15.615C68.1603 16.261 67.8203 17.0576 67.8203 18.0145C67.8203 18.9714 68.1603 19.734 68.8404 20.414C69.5204 21.1281 70.351 21.4875 71.337 21.4875C72.255 21.4875 73.0516 21.1329 73.7365 20.414C74.4166 19.734 74.7566 18.9326 74.7566 18.0145ZM72.2308 18.9568C71.9685 19.2289 71.6625 19.3697 71.3079 19.3697C70.929 19.3697 70.6084 19.2337 70.3461 18.9568C70.0838 18.6945 69.9527 18.3885 69.9527 18.034C69.9527 17.6794 70.0838 17.3588 70.3461 17.1111C70.6084 16.8488 70.929 16.7176 71.3079 16.7176C71.6625 16.7176 71.9685 16.8488 72.2308 17.1111C72.4931 17.3734 72.6242 17.6794 72.6242 18.034C72.6242 18.3885 72.4931 18.6945 72.2308 18.9568Z" fill="white"/>
<path d="M70.0844 22.4055H67.9375V26.85H79.5028V24.3922H70.0893V22.4055H70.0844Z" fill="white"/>
<path d="M79.1313 16.1155V13.5994H76.9844V21.4196H79.1313V18.5684H80.6225V16.1106H79.1313V16.1155Z" fill="white"/>
<path d="M74.9549 13.5847H72.3028V11.8555H70.1559V13.5847H67.4844V16.1591H74.9598V13.5847H74.9549Z" fill="white"/>
<path d="M107.845 13.6045V16.1206H105.645V18.5784H107.845V26.8747H109.992V13.6045H107.845Z" fill="white"/>
<path d="M101.006 13.5898L97.3047 21.0458L99.3302 22.4253L101.453 18.18L103.595 22.4253L105.645 21.0458L101.939 13.5898H101.006Z" fill="white"/>
<line x1="163.5" y1="13" x2="163.5" y2="28" stroke="white"/>
<path d="M181.182 26.0791H180.026V14.7041H181.182V26.0791ZM171.254 22.9434C171.774 22.6302 172.217 22.207 172.581 21.6738C172.949 21.1406 173.224 20.5482 173.406 19.8965C173.592 19.2406 173.687 18.5677 173.691 17.8779V16.9639H171.597V15.9863H176.802V16.9639H174.847V17.8779C174.847 18.5381 174.936 19.1792 175.113 19.8013C175.295 20.4233 175.564 20.9862 175.919 21.4897C176.279 21.9933 176.717 22.3932 177.233 22.6895L176.51 23.5781C175.981 23.265 175.528 22.8333 175.151 22.2832C174.779 21.7331 174.489 21.1047 174.282 20.3979C174.074 21.1639 173.776 21.8452 173.387 22.4419C172.997 23.0386 172.532 23.5062 171.99 23.8447L171.254 22.9434ZM175.964 18.7285H177.729V14.9453H178.871V25.5078H177.729V19.7188H175.964V18.7285ZM191.592 18.0938H193.242V19.1094H191.592V23.0576H190.386V14.6914H191.592V18.0938ZM182.832 18.3096C182.828 17.7679 182.957 17.2834 183.219 16.856C183.486 16.4243 183.85 16.0879 184.311 15.8467C184.772 15.6012 185.286 15.4785 185.854 15.4785C186.421 15.4785 186.935 15.6012 187.396 15.8467C187.857 16.0879 188.219 16.4243 188.481 16.856C188.748 17.2834 188.883 17.7679 188.888 18.3096C188.883 18.8512 188.748 19.3379 188.481 19.7695C188.219 20.2012 187.857 20.5376 187.396 20.7788C186.935 21.02 186.421 21.1406 185.854 21.1406C185.286 21.1406 184.772 21.02 184.311 20.7788C183.85 20.5376 183.486 20.2012 183.219 19.7695C182.957 19.3379 182.828 18.8512 182.832 18.3096ZM184.013 18.3096C184.008 18.6566 184.087 18.9655 184.248 19.2363C184.408 19.5029 184.628 19.7124 184.908 19.8647C185.191 20.0129 185.507 20.0869 185.854 20.0869C186.201 20.0869 186.514 20.0129 186.793 19.8647C187.076 19.7124 187.299 19.5029 187.459 19.2363C187.625 18.9655 187.707 18.6566 187.707 18.3096C187.707 17.9626 187.625 17.6558 187.459 17.3892C187.299 17.1183 187.076 16.9089 186.793 16.7607C186.514 16.6084 186.201 16.5322 185.854 16.5322C185.507 16.5322 185.191 16.6084 184.908 16.7607C184.628 16.9089 184.408 17.1183 184.248 17.3892C184.087 17.6558 184.008 17.9626 184.013 18.3096ZM184.381 22.1816H185.587V24.8604H192.074V25.8379H184.381V22.1816ZM197.99 17.5986C197.99 18.2884 198.111 18.9655 198.352 19.6299C198.597 20.29 198.94 20.8761 199.38 21.3882C199.82 21.9002 200.326 22.2832 200.897 22.5371L200.161 23.502C199.526 23.1803 198.97 22.717 198.492 22.1118C198.014 21.5024 197.647 20.8042 197.394 20.0171C197.14 20.8507 196.769 21.5934 196.283 22.2451C195.8 22.8926 195.235 23.3835 194.588 23.7178L193.826 22.7402C194.402 22.4652 194.912 22.0589 195.356 21.5215C195.805 20.9798 196.152 20.3662 196.397 19.6807C196.647 18.9909 196.771 18.2969 196.771 17.5986V15.6562H197.99V17.5986ZM199.641 18.4873H202.18V14.7041H203.373V26.1045H202.18V19.4648H199.641V18.4873ZM214.672 16.5068H213.58V19.9473C214.101 19.9049 214.566 19.8584 214.977 19.8076L215.027 20.7217C214.05 20.874 213.011 20.9756 211.911 21.0264C210.81 21.0771 209.661 21.1025 208.464 21.1025L208.312 20.0996C208.908 20.0996 209.369 20.0975 209.695 20.0933V16.5068H208.629V15.5293H214.672V16.5068ZM210.127 23.9971C210.127 23.557 210.279 23.1825 210.584 22.8735C210.889 22.5604 211.329 22.3234 211.904 22.1626C212.484 21.9976 213.174 21.915 213.974 21.915C214.769 21.915 215.455 21.9976 216.03 22.1626C216.61 22.3234 217.052 22.5604 217.357 22.8735C217.666 23.1825 217.82 23.557 217.82 23.9971C217.82 24.4287 217.666 24.799 217.357 25.1079C217.048 25.4168 216.606 25.6517 216.03 25.8125C215.455 25.9733 214.769 26.0537 213.974 26.0537C213.174 26.0537 212.484 25.9733 211.904 25.8125C211.329 25.6517 210.889 25.4168 210.584 25.1079C210.279 24.799 210.127 24.4287 210.127 23.9971ZM210.863 20.0742C211.38 20.0615 211.9 20.0425 212.425 20.0171V16.5068H210.863V20.0742ZM211.32 23.9971C211.316 24.3525 211.547 24.6297 212.012 24.8286C212.478 25.0233 213.132 25.1227 213.974 25.127C214.812 25.1227 215.461 25.0233 215.922 24.8286C216.388 24.6297 216.623 24.3525 216.627 23.9971C216.623 23.6331 216.392 23.3517 215.935 23.1528C215.478 22.9539 214.837 22.8545 214.012 22.8545C213.153 22.8545 212.488 22.9539 212.019 23.1528C211.549 23.3475 211.316 23.6289 211.32 23.9971ZM214.837 18.7539H216.576V17.6494H214.837V16.6846H216.576V14.7041H217.782V21.6992H216.576V19.7188H214.837V18.7539ZM228.396 19.2363H230.16V20.2393H228.396V26.0664H227.189V14.7041H228.396V19.2363ZM219.547 23.0322C220.969 22.3213 222.067 21.4538 222.841 20.4297C223.62 19.4056 224.071 18.2292 224.193 16.9004H220.118V15.8975H225.425C225.416 17.6325 224.995 19.1919 224.162 20.5757C223.328 21.9552 222.014 23.0872 220.22 23.9717L219.547 23.0322ZM234.946 17.5986C234.942 18.2842 235.067 18.9591 235.321 19.6235C235.579 20.2879 235.937 20.8783 236.394 21.3945C236.855 21.9066 237.375 22.2917 237.955 22.5498L237.231 23.502C236.584 23.193 236.011 22.736 235.511 22.1309C235.012 21.5257 234.627 20.8317 234.356 20.0488C234.089 20.8952 233.7 21.6421 233.188 22.2896C232.68 22.937 232.09 23.4258 231.417 23.7559L230.681 22.7402C231.269 22.4821 231.794 22.0864 232.255 21.5532C232.716 21.0158 233.076 20.4022 233.334 19.7124C233.596 19.0184 233.728 18.3138 233.728 17.5986V15.6562H234.946V17.5986ZM238.983 14.7041H240.189V26.1045H238.983V14.7041ZM247.781 16.3164C247.781 16.9173 247.974 17.5013 248.359 18.0684C248.744 18.6354 249.256 19.12 249.895 19.522C250.538 19.9198 251.222 20.1842 251.945 20.3154L251.387 21.3184C250.777 21.1872 250.195 20.9714 249.641 20.6709C249.087 20.3704 248.594 20.0044 248.162 19.5728C247.735 19.1369 247.4 18.6566 247.159 18.1318C246.914 18.6523 246.575 19.1305 246.144 19.5664C245.712 19.998 245.219 20.3641 244.665 20.6646C244.11 20.965 243.528 21.1829 242.919 21.3184L242.386 20.3154C243.101 20.18 243.774 19.9134 244.404 19.5156C245.039 19.1136 245.549 18.6312 245.934 18.0684C246.319 17.5013 246.512 16.9173 246.512 16.3164V15.4531H247.781V16.3164ZM242.005 23.5781H252.415V24.5811H242.005V23.5781ZM258.077 16.418H254.903V17.6494H257.633V18.5889H254.903V19.9473C255.69 19.9388 256.355 19.9155 256.896 19.8774C257.442 19.8394 257.997 19.7695 258.56 19.668L258.674 20.6201C258.052 20.7386 257.438 20.8169 256.833 20.855C256.232 20.8931 255.449 20.9121 254.484 20.9121H253.748V15.4277H258.077V16.418ZM255.335 22.042H262.939V25.9395H255.335V22.042ZM261.759 24.9619V22.9941H256.541V24.9619H261.759ZM258.153 17.5225H259.562V14.8945H260.705V21.4453H259.562V18.5H258.153V17.5225ZM261.797 14.7041H262.939V21.5342H261.797V14.7041Z" fill="white"/>
</svg>
